<svg id="svg" version="1.1" xmlns="http://www.w3.org/2000/svg" xmlns:xlink="http://www.w3.org/1999/xlink" width="400" height="266.6666666666667" viewBox="0, 0, 400,266.6666666666667"><g id="svgg"><path id="path0" d="M76.315 13.074 C 76.275 13.114,75.869 13.192,75.413 13.246 C 73.738 13.446,73.333 13.533,73.333 13.691 C 73.333 13.780,73.253 13.804,73.156 13.743 C 73.058 13.683,72.865 13.772,72.727 13.942 C 72.588 14.111,72.523 14.156,72.581 14.042 C 72.639 13.927,72.607 13.833,72.510 13.833 C 72.413 13.833,72.333 13.892,72.333 13.965 C 72.333 14.037,72.166 14.108,71.961 14.124 C 71.756 14.139,71.562 14.231,71.530 14.327 C 71.498 14.423,71.409 14.463,71.333 14.416 C 71.256 14.369,71.092 14.425,70.968 14.540 C 70.844 14.656,70.631 14.773,70.496 14.802 C 70.361 14.830,70.112 15.018,69.944 15.219 C 69.775 15.419,69.696 15.471,69.768 15.333 C 69.931 15.019,69.429 15.369,68.944 15.909 C 68.775 16.097,68.690 16.151,68.753 16.029 C 68.848 15.848,68.807 15.847,68.528 16.021 C 68.341 16.138,68.232 16.305,68.287 16.392 C 68.342 16.483,68.296 16.497,68.180 16.425 C 67.931 16.271,67.131 16.975,67.281 17.217 C 67.338 17.309,67.307 17.337,67.212 17.278 C 66.981 17.135,64.801 19.676,64.910 19.961 C 64.958 20.083,64.926 20.140,64.840 20.087 C 64.629 19.957,64.283 20.630,64.402 20.938 C 64.462 21.095,64.427 21.141,64.305 21.066 C 64.175 20.986,64.144 21.063,64.208 21.308 C 64.269 21.540,64.239 21.628,64.123 21.556 C 64.008 21.485,63.983 21.549,64.053 21.731 C 64.113 21.889,64.096 21.976,64.015 21.926 C 63.820 21.806,63.434 23.424,63.594 23.685 C 63.676 23.817,63.648 23.841,63.508 23.755 C 63.348 23.656,63.312 23.822,63.358 24.464 C 63.390 24.925,63.360 25.267,63.292 25.224 C 63.223 25.182,63.167 56.506,63.167 94.833 C 63.167 133.161,63.229 164.481,63.305 164.434 C 63.381 164.387,63.408 164.769,63.365 165.282 C 63.310 165.946,63.342 166.181,63.475 166.098 C 63.592 166.026,63.628 166.073,63.570 166.223 C 63.391 166.691,64.720 170.090,65.012 169.909 C 65.076 169.870,65.119 169.967,65.106 170.127 C 65.094 170.287,65.182 170.396,65.304 170.371 C 65.431 170.345,65.475 170.405,65.409 170.513 C 65.271 170.736,67.412 172.958,68.484 173.706 C 68.888 173.988,69.160 174.124,69.089 174.009 C 68.990 173.849,69.033 173.840,69.272 173.971 C 69.678 174.194,70.326 174.728,70.000 174.571 C 69.828 174.488,69.802 174.506,69.917 174.628 C 70.320 175.054,72.181 175.851,72.522 175.743 C 72.783 175.660,72.841 175.686,72.744 175.844 C 72.651 175.994,72.692 176.026,72.884 175.952 C 73.034 175.895,73.198 175.916,73.250 176.000 C 73.302 176.084,73.454 176.110,73.589 176.058 C 73.723 176.007,73.833 176.049,73.833 176.152 C 73.833 176.272,73.993 176.300,74.275 176.229 C 74.615 176.143,74.685 176.168,74.581 176.337 C 74.481 176.499,74.524 176.527,74.744 176.442 C 74.908 176.379,75.144 176.412,75.269 176.516 C 75.394 176.619,75.616 176.658,75.763 176.601 C 75.910 176.545,76.091 176.537,76.166 176.583 C 76.415 176.737,322.472 176.755,322.377 176.602 C 322.325 176.519,322.545 176.503,322.880 176.565 C 323.207 176.627,323.517 176.607,323.571 176.521 C 323.624 176.435,323.817 176.404,324.000 176.452 C 324.183 176.500,324.333 176.462,324.333 176.368 C 324.333 176.275,324.483 176.237,324.667 176.285 C 324.850 176.333,325.000 176.291,325.000 176.191 C 325.000 176.092,325.105 176.051,325.233 176.100 C 325.361 176.149,325.514 176.113,325.572 176.019 C 325.630 175.925,325.787 175.890,325.922 175.942 C 326.057 175.993,326.167 175.948,326.167 175.841 C 326.167 175.734,326.242 175.694,326.335 175.751 C 326.588 175.908,327.188 175.669,327.060 175.462 C 326.996 175.359,327.026 175.330,327.129 175.394 C 327.383 175.551,328.509 174.985,328.383 174.764 C 328.326 174.665,328.340 174.638,328.415 174.705 C 328.608 174.880,329.840 174.149,329.717 173.931 C 329.660 173.832,329.673 173.804,329.745 173.869 C 329.940 174.045,330.528 173.681,330.396 173.466 C 330.333 173.365,330.356 173.327,330.446 173.383 C 330.628 173.496,331.903 172.514,331.760 172.371 C 331.625 172.236,332.015 171.823,332.181 171.925 C 332.486 172.114,334.808 168.530,334.548 168.270 C 334.491 168.213,334.536 168.167,334.649 168.167 C 334.761 168.167,334.807 168.092,334.750 168.000 C 334.693 167.908,334.739 167.833,334.851 167.833 C 334.964 167.833,335.006 167.784,334.946 167.724 C 334.886 167.663,334.913 167.521,335.007 167.408 C 335.101 167.295,335.164 167.138,335.146 167.059 C 335.128 166.981,335.182 166.767,335.265 166.583 C 335.531 165.997,335.445 23.167,335.178 23.167 C 335.104 23.167,335.044 23.035,335.045 22.875 C 335.048 22.045,334.990 21.820,334.805 21.934 C 334.674 22.015,334.645 21.964,334.716 21.777 C 334.775 21.625,334.769 21.500,334.703 21.500 C 334.637 21.500,334.362 21.033,334.093 20.463 C 333.823 19.892,333.411 19.242,333.177 19.019 C 332.942 18.795,332.862 18.672,333.000 18.746 C 333.137 18.819,332.725 18.358,332.083 17.720 C 331.442 17.083,330.842 16.542,330.750 16.519 C 330.658 16.495,330.523 16.369,330.450 16.238 C 330.377 16.107,330.214 16.000,330.089 16.000 C 329.964 16.000,329.836 15.944,329.806 15.875 C 329.703 15.643,328.682 15.000,328.418 15.000 C 328.274 15.000,328.113 14.888,328.061 14.751 C 328.008 14.614,327.898 14.543,327.816 14.594 C 327.734 14.645,327.667 14.602,327.667 14.500 C 327.667 14.398,327.598 14.356,327.514 14.408 C 327.430 14.460,327.337 14.429,327.306 14.339 C 327.275 14.250,327.100 14.153,326.917 14.125 C 326.733 14.097,326.478 14.008,326.349 13.928 C 326.190 13.828,326.153 13.843,326.233 13.972 C 326.309 14.095,326.259 14.128,326.093 14.064 C 325.951 14.010,325.885 13.885,325.945 13.788 C 326.016 13.673,325.946 13.652,325.749 13.727 C 325.576 13.794,325.392 13.762,325.326 13.654 C 325.261 13.550,324.880 13.435,324.479 13.400 C 324.078 13.365,323.487 13.286,323.167 13.224 C 322.535 13.103,76.435 12.953,76.315 13.074 M320.667 24.347 C 320.667 24.447,320.757 24.498,320.868 24.461 C 320.979 24.424,321.289 24.586,321.556 24.822 C 321.823 25.057,322.113 25.229,322.200 25.204 C 322.287 25.179,322.315 25.228,322.263 25.313 C 322.210 25.397,322.167 56.778,322.166 95.047 C 322.165 161.043,322.150 164.639,321.874 164.855 C 321.605 165.066,321.602 165.058,321.830 164.750 C 322.075 164.421,322.073 164.421,321.709 164.731 C 321.507 164.903,321.371 165.093,321.408 165.153 C 321.445 165.213,321.350 165.270,321.196 165.280 C 321.042 165.289,266.147 165.306,199.206 165.316 L 77.496 165.334 77.003 164.792 L 76.510 164.250 76.506 94.699 C 76.503 52.669,76.562 25.185,76.654 25.242 C 76.738 25.294,76.953 25.151,77.131 24.924 C 77.310 24.697,77.503 24.559,77.561 24.617 C 77.619 24.675,77.667 24.637,77.667 24.533 C 77.667 24.429,77.779 24.387,77.917 24.440 C 78.054 24.492,78.167 24.453,78.167 24.351 C 78.167 24.216,110.882 24.167,199.417 24.167 C 286.357 24.167,320.667 24.218,320.667 24.347 M63.458 129.542 C 63.435 148.631,63.416 133.012,63.416 94.833 C 63.416 56.654,63.435 41.035,63.458 60.125 C 63.482 79.215,63.482 110.452,63.458 129.542 M171.905 26.148 C 171.955 26.229,171.866 26.285,171.707 26.273 C 171.546 26.260,171.437 26.349,171.462 26.471 C 171.489 26.597,171.428 26.642,171.322 26.576 C 170.919 26.327,160.163 37.329,160.169 37.983 C 160.171 38.216,160.192 38.218,160.333 38.000 C 160.432 37.847,160.496 37.828,160.497 37.950 C 160.499 38.060,160.376 38.219,160.224 38.304 C 159.709 38.593,160.424 41.334,160.982 41.208 C 161.084 41.185,161.151 41.223,161.131 41.292 C 161.056 41.557,161.524 42.172,161.717 42.061 C 161.827 41.998,161.860 42.009,161.791 42.085 C 161.641 42.250,162.132 42.833,162.422 42.833 C 162.533 42.833,162.671 43.063,162.727 43.344 C 162.797 43.693,162.896 43.817,163.040 43.734 C 163.155 43.668,163.196 43.673,163.131 43.745 C 162.955 43.940,163.319 44.528,163.534 44.396 C 163.635 44.333,163.676 44.350,163.624 44.434 C 163.514 44.613,163.967 45.290,164.114 45.167 C 164.169 45.121,164.297 45.232,164.399 45.414 C 164.500 45.596,164.715 45.844,164.875 45.965 C 165.035 46.086,165.167 46.263,165.167 46.358 C 165.167 46.452,165.335 46.679,165.542 46.861 C 165.748 47.043,165.804 47.134,165.667 47.064 C 165.446 46.951,165.445 46.974,165.662 47.260 C 166.260 48.047,167.087 48.913,167.205 48.875 C 167.275 48.852,167.317 48.890,167.298 48.958 C 167.231 49.195,167.684 49.843,167.846 49.742 C 167.935 49.687,167.990 49.704,167.969 49.779 C 167.893 50.042,168.351 50.675,168.534 50.562 C 168.646 50.493,168.671 50.525,168.598 50.643 C 168.529 50.755,168.706 51.065,169.018 51.377 C 169.315 51.674,169.541 51.939,169.520 51.965 C 169.423 52.091,170.806 53.640,170.921 53.536 C 170.994 53.470,171.008 53.497,170.952 53.596 C 170.822 53.824,172.468 55.873,172.677 55.744 C 172.763 55.690,172.833 55.761,172.833 55.901 C 172.833 56.041,172.986 56.236,173.172 56.336 C 173.358 56.436,173.492 56.607,173.470 56.717 C 173.405 57.042,173.834 57.686,174.034 57.562 C 174.135 57.500,174.175 57.518,174.122 57.604 C 174.069 57.689,174.177 57.945,174.361 58.171 C 174.545 58.398,174.645 58.471,174.584 58.333 C 174.522 58.196,174.697 58.321,174.971 58.612 C 175.246 58.902,175.515 59.096,175.569 59.042 C 175.623 58.988,175.667 59.036,175.667 59.149 C 175.667 59.261,175.734 59.312,175.816 59.261 C 175.898 59.210,176.010 59.285,176.065 59.428 C 176.119 59.571,176.240 59.641,176.332 59.584 C 176.424 59.527,176.500 59.558,176.500 59.653 C 176.500 59.869,177.754 60.524,177.896 60.382 C 177.953 60.325,178.000 60.363,178.000 60.468 C 178.000 60.728,178.965 61.208,179.197 61.064 C 179.306 60.998,179.339 61.023,179.276 61.125 C 179.213 61.226,179.483 61.431,179.916 61.609 C 180.328 61.778,180.666 61.977,180.666 62.052 C 180.666 62.126,180.742 62.140,180.833 62.083 C 180.925 62.027,181.000 62.072,181.000 62.185 C 181.000 62.297,181.044 62.345,181.097 62.292 C 181.151 62.238,181.341 62.341,181.520 62.520 C 181.699 62.699,181.918 62.801,182.006 62.746 C 182.094 62.692,182.167 62.725,182.167 62.820 C 182.167 63.072,183.475 63.700,183.714 63.563 C 183.825 63.499,183.860 63.509,183.791 63.585 C 183.628 63.765,184.979 64.533,185.209 64.391 C 185.306 64.331,185.338 64.357,185.281 64.450 C 185.181 64.612,185.826 65.000,186.195 65.000 C 186.294 65.000,186.672 65.338,187.035 65.751 C 187.399 66.164,187.752 66.467,187.820 66.425 C 187.888 66.383,188.347 66.758,188.841 67.258 C 189.335 67.758,189.671 68.167,189.588 68.167 C 189.505 68.167,189.651 68.389,189.911 68.661 C 190.171 68.932,190.435 69.123,190.497 69.085 C 190.559 69.047,191.014 69.424,191.508 69.924 C 192.001 70.424,192.338 70.833,192.255 70.833 C 192.172 70.833,192.317 71.056,192.578 71.327 C 192.838 71.599,193.102 71.790,193.164 71.752 C 193.226 71.713,193.681 72.091,194.174 72.591 C 194.668 73.091,195.004 73.500,194.921 73.500 C 194.839 73.500,194.984 73.722,195.244 73.994 C 195.505 74.266,195.768 74.457,195.830 74.418 C 195.893 74.380,196.347 74.758,196.841 75.258 C 197.335 75.758,197.671 76.167,197.588 76.167 C 197.505 76.167,197.651 76.389,197.911 76.661 C 198.171 76.932,198.435 77.123,198.497 77.085 C 198.559 77.047,199.014 77.424,199.508 77.924 C 200.001 78.424,200.338 78.833,200.255 78.833 C 200.172 78.833,200.317 79.056,200.578 79.327 C 200.838 79.599,201.102 79.790,201.164 79.752 C 201.226 79.713,201.681 80.091,202.174 80.591 C 202.668 81.091,203.004 81.500,202.921 81.500 C 202.839 81.500,202.984 81.722,203.244 81.994 C 203.505 82.266,203.768 82.457,203.830 82.418 C 203.893 82.380,204.347 82.758,204.841 83.258 C 205.335 83.758,205.671 84.167,205.588 84.167 C 205.505 84.167,205.651 84.389,205.911 84.661 C 206.171 84.932,206.435 85.123,206.497 85.085 C 206.640 84.997,208.372 86.739,208.256 86.855 C 208.209 86.902,208.394 87.156,208.668 87.418 C 208.942 87.681,209.167 87.833,209.167 87.755 C 209.167 87.678,209.323 87.756,209.514 87.929 C 209.842 88.226,209.870 88.227,210.024 87.951 C 210.114 87.791,210.269 87.710,210.369 87.772 C 210.470 87.834,210.506 87.811,210.451 87.722 C 210.317 87.505,212.893 84.953,213.077 85.120 C 213.156 85.191,213.174 85.169,213.118 85.071 C 212.987 84.841,215.554 82.281,215.744 82.453 C 215.822 82.525,215.841 82.503,215.785 82.404 C 215.654 82.174,218.221 79.614,218.411 79.787 C 218.489 79.858,218.508 79.836,218.452 79.738 C 218.337 79.535,220.871 76.942,221.050 77.078 C 221.114 77.127,221.130 77.117,221.085 77.057 C 221.040 76.997,221.340 76.588,221.752 76.148 C 222.653 75.184,222.655 75.242,221.693 74.423 L 220.917 73.764 221.667 74.590 L 222.417 75.417 221.638 74.687 C 221.210 74.285,220.893 73.871,220.934 73.766 C 221.024 73.530,219.718 72.226,219.555 72.389 C 219.392 72.553,218.176 71.336,218.267 71.100 C 218.357 70.864,217.052 69.559,216.889 69.723 C 216.725 69.886,215.509 68.669,215.600 68.433 C 215.691 68.197,214.385 66.892,214.222 67.056 C 214.059 67.219,212.843 66.003,212.933 65.766 C 213.024 65.530,211.719 64.226,211.555 64.389 C 211.392 64.553,210.176 63.336,210.267 63.100 C 210.357 62.864,209.052 61.559,208.889 61.723 C 208.725 61.886,207.509 60.669,207.600 60.433 C 207.691 60.197,206.385 58.892,206.222 59.056 C 206.059 59.219,204.843 58.003,204.933 57.766 C 205.024 57.530,203.719 56.226,203.555 56.389 C 203.392 56.553,202.176 55.336,202.267 55.100 C 202.360 54.856,201.083 53.596,200.874 53.725 C 200.788 53.778,200.505 53.599,200.244 53.327 C 199.984 53.056,199.824 52.833,199.889 52.833 C 200.089 52.833,199.320 51.434,198.941 51.111 C 198.744 50.942,198.668 50.848,198.773 50.900 C 198.877 50.953,198.766 50.628,198.526 50.179 C 198.286 49.729,198.021 49.404,197.936 49.456 C 197.851 49.509,197.832 49.471,197.892 49.373 C 197.953 49.274,197.887 49.078,197.746 48.936 C 197.604 48.794,197.499 48.635,197.511 48.582 C 197.566 48.355,197.115 47.512,196.983 47.594 C 196.903 47.644,196.875 47.584,196.922 47.462 C 196.969 47.340,196.888 47.093,196.741 46.912 C 196.595 46.731,196.530 46.689,196.597 46.817 C 196.678 46.973,196.653 47.011,196.521 46.930 C 196.413 46.863,196.341 46.720,196.362 46.612 C 196.430 46.253,196.148 45.668,195.822 45.494 C 195.645 45.399,195.500 45.180,195.500 45.006 C 195.500 44.832,195.382 44.573,195.238 44.429 C 195.094 44.285,195.016 44.167,195.065 44.167 C 195.113 44.167,194.965 43.792,194.734 43.333 C 194.504 42.875,194.278 42.500,194.231 42.500 C 194.185 42.500,194.201 42.587,194.266 42.692 C 194.340 42.813,194.312 42.840,194.190 42.764 C 194.082 42.698,194.036 42.576,194.087 42.494 C 194.335 42.093,192.679 39.870,192.305 40.101 C 192.229 40.148,192.167 40.102,192.167 40.000 C 192.167 39.898,192.080 39.867,191.974 39.933 C 191.860 40.003,191.827 39.979,191.893 39.872 C 192.031 39.648,191.190 38.966,190.955 39.111 C 190.858 39.171,190.831 39.138,190.894 39.037 C 191.029 38.818,190.347 38.305,190.114 38.449 C 190.023 38.506,189.999 38.470,190.060 38.370 C 190.196 38.152,189.514 37.638,189.280 37.783 C 189.190 37.839,189.166 37.802,189.229 37.701 C 189.342 37.518,188.708 37.060,188.446 37.135 C 188.370 37.157,188.354 37.102,188.409 37.012 C 188.509 36.850,187.862 36.398,187.625 36.465 C 187.556 36.484,187.519 36.438,187.542 36.363 C 187.612 36.131,185.988 34.821,185.779 34.941 C 185.671 35.003,185.639 34.992,185.707 34.917 C 185.819 34.793,185.264 34.284,184.958 34.230 C 184.890 34.218,184.767 34.199,184.686 34.188 C 184.605 34.176,184.496 34.001,184.443 33.799 C 184.390 33.597,184.294 33.484,184.230 33.547 C 184.075 33.703,183.645 33.336,183.762 33.148 C 183.812 33.067,183.774 32.991,183.677 32.979 C 183.579 32.968,183.431 32.949,183.347 32.938 C 183.263 32.926,183.132 32.848,183.056 32.765 C 182.975 32.677,183.004 32.663,183.125 32.733 C 183.544 32.974,183.318 32.679,182.803 32.312 C 182.512 32.104,182.329 32.024,182.396 32.134 C 182.690 32.610,182.229 32.255,181.235 31.241 C 180.601 30.594,180.086 30.197,179.973 30.267 C 179.863 30.335,179.827 30.312,179.888 30.213 C 179.994 30.042,178.697 29.060,178.458 29.130 C 178.390 29.150,178.352 29.073,178.375 28.958 C 178.398 28.844,178.286 28.760,178.127 28.773 C 177.967 28.785,177.872 28.739,177.915 28.670 C 178.042 28.463,177.372 27.956,177.151 28.093 C 177.031 28.167,176.991 28.149,177.054 28.048 C 177.205 27.803,176.566 27.275,176.302 27.427 C 176.182 27.497,176.139 27.492,176.207 27.417 C 176.345 27.265,176.046 26.833,175.803 26.833 C 175.717 26.833,175.703 26.927,175.772 27.042 C 175.858 27.185,175.810 27.179,175.617 27.023 C 175.463 26.898,175.376 26.733,175.423 26.656 C 175.529 26.485,174.919 26.137,174.772 26.284 C 174.714 26.342,174.667 26.301,174.667 26.194 C 174.667 26.061,174.216 26.000,173.240 26.000 C 172.453 26.000,171.855 26.066,171.905 26.148 M150.500 52.670 C 150.690 52.795,150.629 52.827,150.245 52.802 C 149.968 52.783,149.649 52.825,149.537 52.894 C 149.425 52.963,149.333 52.940,149.333 52.843 C 149.333 52.746,149.216 52.667,149.073 52.667 C 148.931 52.667,148.855 52.733,148.904 52.814 C 148.954 52.894,148.678 52.966,148.289 52.974 C 147.136 52.995,147.000 53.014,147.000 53.155 C 147.000 53.229,146.869 53.289,146.708 53.289 C 145.736 53.285,145.325 53.352,145.415 53.498 C 145.473 53.592,145.408 53.621,145.265 53.566 C 144.835 53.401,143.320 54.013,142.643 54.625 C 141.483 55.673,141.210 57.926,142.151 58.688 C 142.335 58.837,142.454 58.990,142.416 59.028 C 142.378 59.067,144.647 61.382,147.459 64.174 C 150.271 66.966,152.386 69.025,152.161 68.750 L 151.750 68.250 152.208 68.653 C 152.459 68.875,152.635 69.087,152.598 69.124 C 152.561 69.161,152.593 69.411,152.670 69.679 C 152.761 69.997,152.749 70.167,152.636 70.167 C 152.539 70.167,152.497 70.354,152.541 70.583 C 152.585 70.813,152.566 71.000,152.499 71.000 C 152.327 71.000,151.986 72.839,152.074 73.292 C 152.115 73.498,152.075 73.667,151.987 73.667 C 151.899 73.667,151.861 73.854,151.902 74.083 C 151.944 74.313,151.906 74.500,151.819 74.500 C 151.732 74.500,151.694 74.689,151.736 74.920 C 151.787 75.199,151.751 75.302,151.628 75.226 C 151.511 75.154,151.480 75.207,151.543 75.370 C 151.618 75.567,151.559 75.607,151.295 75.538 C 151.084 75.483,150.989 75.514,151.052 75.616 C 151.116 75.720,150.997 75.755,150.745 75.706 C 150.519 75.663,150.333 75.701,150.333 75.791 C 150.333 75.880,150.146 75.918,149.917 75.874 C 149.656 75.824,149.500 75.871,149.500 75.998 C 149.500 76.115,149.388 76.159,149.238 76.102 C 149.093 76.046,148.863 76.113,148.726 76.250 C 148.588 76.388,148.388 76.499,148.280 76.497 C 148.165 76.496,148.187 76.428,148.333 76.333 C 148.547 76.195,148.541 76.171,148.292 76.169 C 148.131 76.168,148.000 76.247,148.000 76.345 C 148.000 76.444,147.859 76.478,147.681 76.421 C 147.505 76.365,147.315 76.395,147.259 76.486 C 147.202 76.577,147.034 76.605,146.884 76.548 C 146.699 76.477,146.652 76.507,146.735 76.643 C 146.825 76.788,146.716 76.817,146.333 76.750 C 145.988 76.689,145.845 76.718,145.916 76.833 C 146.258 77.386,145.434 76.696,143.884 75.131 C 142.911 74.149,142.040 73.392,141.948 73.449 C 141.857 73.505,141.830 73.474,141.888 73.379 C 141.947 73.284,140.552 71.794,138.789 70.068 C 134.834 66.196,134.639 66.022,134.147 65.931 C 133.929 65.891,133.750 65.846,133.750 65.830 C 133.750 65.667,131.966 65.780,131.583 65.967 C 130.948 66.278,129.973 67.351,130.077 67.625 C 130.121 67.740,130.075 67.833,129.975 67.833 C 129.876 67.833,129.834 67.983,129.882 68.167 C 129.930 68.350,129.901 68.458,129.818 68.407 C 129.675 68.319,129.595 68.669,129.654 69.125 C 129.669 69.240,129.605 69.333,129.513 69.333 C 129.420 69.333,129.387 69.446,129.440 69.583 C 129.493 69.722,129.445 69.833,129.332 69.833 C 129.210 69.833,129.163 69.967,129.215 70.167 C 129.263 70.350,129.225 70.500,129.132 70.500 C 129.038 70.500,129.000 70.650,129.048 70.833 C 129.096 71.017,129.058 71.167,128.964 71.167 C 128.861 71.167,128.832 71.370,128.892 71.667 C 128.947 71.942,128.929 72.167,128.852 72.167 C 128.776 72.167,128.716 73.854,128.719 75.917 C 128.722 77.979,128.788 79.667,128.866 79.667 C 128.943 79.667,128.959 79.854,128.902 80.083 C 128.837 80.343,128.868 80.500,128.985 80.500 C 129.102 80.500,129.134 80.657,129.068 80.917 C 129.008 81.156,129.036 81.333,129.133 81.333 C 129.226 81.333,129.263 81.483,129.215 81.667 C 129.163 81.866,129.210 82.000,129.332 82.000 C 129.444 82.000,129.495 82.105,129.446 82.234 C 129.397 82.362,129.407 82.518,129.470 82.581 C 129.532 82.643,129.593 82.763,129.604 82.847 C 129.616 82.931,129.644 83.037,129.667 83.083 C 129.690 83.129,129.722 83.223,129.739 83.292 C 129.755 83.360,129.827 83.660,129.898 83.958 C 129.969 84.256,130.100 84.500,130.190 84.500 C 130.280 84.500,130.307 84.575,130.250 84.667 C 130.193 84.758,130.239 84.833,130.351 84.833 C 130.464 84.833,130.513 84.876,130.461 84.928 C 130.217 85.172,131.551 87.924,131.831 87.752 C 131.913 87.701,131.970 87.794,131.957 87.958 C 131.936 88.244,133.243 90.333,133.443 90.333 C 133.497 90.333,133.438 90.202,133.312 90.042 C 133.105 89.778,133.111 89.772,133.373 89.977 C 133.533 90.102,133.629 90.259,133.588 90.325 C 133.464 90.527,134.010 91.180,134.204 91.060 C 134.306 90.997,134.337 91.025,134.276 91.125 C 134.216 91.222,134.414 91.515,134.716 91.776 C 135.018 92.037,135.149 92.186,135.007 92.107 C 134.866 92.028,135.083 92.267,135.489 92.638 C 135.896 93.009,136.309 93.299,136.406 93.281 C 136.504 93.264,136.565 93.341,136.544 93.453 C 136.504 93.653,137.549 94.592,137.792 94.575 C 137.860 94.570,138.045 94.720,138.203 94.908 C 138.360 95.096,138.491 95.197,138.494 95.133 C 138.498 95.068,138.688 95.203,138.918 95.433 C 139.148 95.663,139.410 95.805,139.501 95.749 C 139.592 95.693,139.667 95.726,139.667 95.823 C 139.667 95.921,139.813 96.000,139.992 96.000 C 140.170 96.000,140.377 96.102,140.450 96.227 C 140.625 96.525,142.181 97.344,142.361 97.233 C 142.437 97.186,142.500 97.231,142.500 97.333 C 142.500 97.436,142.575 97.473,142.667 97.417 C 142.758 97.360,142.833 97.398,142.833 97.500 C 142.833 97.602,142.903 97.643,142.988 97.590 C 143.074 97.538,143.191 97.572,143.250 97.667 C 143.309 97.761,143.426 97.796,143.512 97.743 C 143.597 97.690,143.667 97.734,143.667 97.841 C 143.667 97.948,143.779 97.992,143.917 97.940 C 144.054 97.887,144.167 97.924,144.167 98.023 C 144.167 98.122,144.283 98.158,144.425 98.103 C 144.568 98.048,144.642 98.072,144.591 98.155 C 144.471 98.348,145.427 98.565,145.688 98.403 C 145.813 98.326,145.840 98.354,145.764 98.478 C 145.681 98.611,145.792 98.669,146.113 98.658 C 146.372 98.649,146.891 98.720,147.267 98.816 C 149.037 99.268,153.222 99.324,155.667 98.929 C 155.804 98.907,156.385 98.831,156.958 98.761 C 157.531 98.691,158.000 98.570,158.000 98.492 C 158.000 98.414,158.514 98.891,159.143 99.550 C 159.771 100.210,167.843 108.304,177.081 117.537 L 193.876 134.323 193.698 135.027 C 193.600 135.413,193.557 135.791,193.603 135.865 C 193.649 135.939,193.626 136.094,193.553 136.208 C 193.418 136.418,193.395 136.551,193.220 138.083 C 193.024 139.805,193.111 143.612,193.349 143.760 C 193.433 143.811,193.453 144.048,193.393 144.285 C 193.324 144.558,193.347 144.678,193.453 144.612 C 193.557 144.548,193.600 144.697,193.565 144.997 C 193.534 145.265,193.578 145.529,193.663 145.581 C 193.749 145.634,193.779 145.780,193.731 145.905 C 193.683 146.030,193.725 146.183,193.825 146.245 C 193.924 146.306,193.962 146.426,193.910 146.512 C 193.857 146.597,193.886 146.667,193.975 146.667 C 194.064 146.667,194.116 146.798,194.090 146.958 C 194.064 147.119,194.088 147.325,194.142 147.417 C 194.196 147.508,194.254 147.673,194.271 147.782 C 194.446 148.937,195.637 151.609,196.116 151.923 C 196.342 152.071,196.487 152.292,196.440 152.415 C 196.393 152.538,196.463 152.681,196.595 152.732 C 196.728 152.782,196.824 152.882,196.808 152.954 C 196.748 153.231,197.045 153.659,197.226 153.556 C 197.331 153.496,197.363 153.506,197.298 153.579 C 197.144 153.749,197.472 154.370,197.656 154.256 C 197.733 154.209,197.785 154.301,197.773 154.460 C 197.760 154.620,197.841 154.732,197.952 154.710 C 198.064 154.689,198.117 154.768,198.071 154.888 C 198.026 155.007,198.154 155.250,198.356 155.427 C 198.558 155.605,198.662 155.645,198.586 155.516 C 198.490 155.353,198.511 155.320,198.652 155.408 C 198.764 155.477,198.812 155.577,198.759 155.630 C 198.631 155.758,199.516 156.677,199.673 156.579 C 199.741 156.538,199.898 156.634,200.023 156.794 C 200.233 157.061,200.225 157.065,199.917 156.838 C 199.663 156.652,199.678 156.700,199.980 157.039 C 200.199 157.285,200.458 157.470,200.556 157.451 C 200.654 157.432,200.742 157.529,200.750 157.667 C 200.758 157.804,200.861 157.896,200.978 157.871 C 201.096 157.846,201.147 157.896,201.094 157.983 C 200.952 158.212,202.443 159.388,202.685 159.238 C 202.804 159.165,202.841 159.186,202.778 159.289 C 202.629 159.529,203.104 159.890,203.368 159.738 C 203.486 159.669,203.526 159.676,203.457 159.752 C 203.301 159.924,204.139 160.497,204.547 160.499 C 204.710 160.500,204.887 160.612,204.940 160.750 C 204.992 160.887,205.174 161.000,205.343 161.000 C 205.512 161.000,205.710 161.102,205.783 161.227 C 205.966 161.539,206.973 162.037,207.172 161.914 C 207.261 161.859,207.333 161.898,207.333 162.000 C 207.333 162.102,207.408 162.140,207.500 162.083 C 207.592 162.027,207.667 162.065,207.667 162.168 C 207.667 162.284,207.803 162.313,208.021 162.243 C 208.283 162.160,208.341 162.186,208.244 162.344 C 208.150 162.495,208.192 162.526,208.389 162.450 C 208.542 162.392,208.667 162.401,208.667 162.471 C 208.667 162.541,208.967 162.678,209.333 162.776 C 209.729 162.881,210.000 162.891,210.000 162.798 C 210.000 162.713,210.119 162.761,210.263 162.906 C 210.408 163.051,210.599 163.125,210.687 163.071 C 210.776 163.016,210.956 163.061,211.089 163.171 C 211.221 163.281,211.443 163.327,211.581 163.274 C 211.720 163.221,211.833 163.240,211.833 163.318 C 211.833 163.454,212.029 163.487,213.250 163.552 C 213.571 163.569,213.833 163.633,213.833 163.694 C 213.833 163.944,220.557 163.662,221.167 163.387 C 221.304 163.324,221.529 163.260,221.667 163.244 C 223.251 163.053,225.793 162.076,225.708 161.690 C 225.685 161.586,225.758 161.519,225.869 161.542 C 226.540 161.680,226.913 159.007,226.375 157.917 C 226.240 157.642,223.737 155.013,220.814 152.075 C 217.453 148.696,215.501 146.614,215.503 146.408 C 215.505 146.137,215.532 146.125,215.667 146.333 C 215.810 146.556,215.829 146.556,215.836 146.333 C 215.857 145.655,216.203 143.464,216.375 142.917 C 216.433 142.733,216.522 142.302,216.573 141.957 C 216.708 141.044,216.994 140.659,217.453 140.774 C 217.662 140.827,217.833 140.794,217.833 140.703 C 217.833 140.611,217.950 140.491,218.092 140.436 C 218.261 140.372,218.309 140.404,218.231 140.530 C 218.148 140.666,218.207 140.684,218.431 140.592 C 218.606 140.519,218.844 140.457,218.958 140.452 C 219.073 140.448,219.167 140.387,219.167 140.317 C 219.167 140.246,219.354 140.223,219.583 140.264 C 219.813 140.306,220.000 140.270,220.000 140.185 C 220.000 140.099,220.131 140.051,220.292 140.076 C 220.452 140.102,220.658 140.079,220.750 140.025 C 220.944 139.910,221.149 139.868,222.161 139.738 C 222.571 139.685,222.950 139.614,223.005 139.580 C 223.060 139.546,224.937 141.371,227.177 143.634 L 231.250 147.750 227.083 143.667 C 223.132 139.794,223.183 139.852,228.073 144.782 C 230.909 147.642,233.282 149.948,233.347 149.908 C 233.412 149.868,233.510 149.952,233.565 150.095 C 233.619 150.238,233.733 150.312,233.818 150.260 C 233.902 150.207,234.002 150.257,234.040 150.371 C 234.121 150.613,236.500 150.710,236.500 150.471 C 236.500 150.387,236.594 150.337,236.708 150.359 C 236.823 150.381,237.254 150.075,237.667 149.679 C 238.079 149.283,238.304 149.012,238.167 149.075 C 237.970 149.167,237.973 149.144,238.182 148.971 C 238.504 148.703,238.898 147.573,238.752 147.337 C 238.694 147.243,238.726 147.167,238.823 147.167 C 238.921 147.167,238.988 147.110,238.973 147.042 C 238.958 146.973,239.033 146.706,239.140 146.447 C 239.374 145.879,239.387 145.658,239.167 146.000 C 239.078 146.137,239.004 146.165,239.003 146.062 C 239.001 145.959,239.117 145.777,239.261 145.658 C 239.423 145.523,239.486 145.299,239.427 145.064 C 239.375 144.857,239.416 144.635,239.518 144.572 C 239.626 144.506,239.666 144.227,239.614 143.905 C 239.563 143.594,239.599 143.328,239.695 143.296 C 239.944 143.213,239.927 137.781,239.679 137.698 C 239.559 137.659,239.529 137.429,239.597 137.068 C 239.667 136.694,239.639 136.500,239.515 136.500 C 239.400 136.500,239.366 136.346,239.427 136.102 C 239.482 135.882,239.445 135.652,239.344 135.590 C 239.244 135.528,239.206 135.404,239.262 135.315 C 239.317 135.225,239.274 135.046,239.167 134.917 C 239.059 134.787,239.016 134.608,239.072 134.519 C 239.127 134.429,239.099 134.311,239.010 134.256 C 238.921 134.201,238.886 134.056,238.934 133.933 C 238.981 133.810,238.906 133.596,238.768 133.458 C 238.629 133.320,238.557 133.165,238.608 133.114 C 238.742 132.980,238.335 131.833,238.154 131.833 C 238.069 131.833,238.009 131.777,238.020 131.708 C 238.077 131.346,237.967 131.027,237.677 130.716 C 237.499 130.525,237.399 130.323,237.454 130.268 C 237.510 130.212,237.464 130.167,237.351 130.167 C 237.239 130.167,237.194 130.091,237.251 129.998 C 237.373 129.801,236.668 128.313,236.501 128.416 C 236.440 128.454,236.389 128.393,236.389 128.281 C 236.389 127.925,235.467 126.667,235.287 126.778 C 235.193 126.837,235.161 126.810,235.217 126.720 C 235.362 126.486,234.848 125.804,234.630 125.940 C 234.527 126.003,234.496 125.975,234.559 125.873 C 234.679 125.678,233.895 124.651,233.672 124.712 C 233.596 124.733,233.545 124.698,233.558 124.634 C 233.605 124.419,232.448 123.346,232.281 123.449 C 232.190 123.505,232.164 123.472,232.225 123.374 C 232.365 123.147,231.363 122.295,231.127 122.441 C 231.028 122.502,230.996 122.474,231.056 122.378 C 231.201 122.142,230.731 121.774,230.482 121.928 C 230.361 122.003,230.325 121.981,230.392 121.874 C 230.452 121.776,230.136 121.428,229.687 121.098 C 228.850 120.484,228.557 120.355,228.766 120.692 C 228.840 120.813,228.812 120.840,228.690 120.764 C 228.582 120.698,228.538 120.574,228.590 120.488 C 228.685 120.336,228.456 120.267,228.039 120.321 C 227.924 120.337,227.785 120.233,227.730 120.092 C 227.676 119.951,227.565 119.877,227.483 119.927 C 227.400 119.978,227.333 119.936,227.333 119.833 C 227.333 119.731,227.258 119.693,227.167 119.750 C 227.075 119.807,227.000 119.769,227.000 119.667 C 227.000 119.564,226.925 119.527,226.833 119.583 C 226.742 119.640,226.667 119.602,226.667 119.500 C 226.667 119.398,226.580 119.367,226.475 119.432 C 226.369 119.498,226.200 119.439,226.100 119.303 C 225.853 118.967,225.195 118.630,225.011 118.743 C 224.929 118.794,224.834 118.753,224.801 118.652 C 224.767 118.552,224.543 118.457,224.303 118.443 C 224.062 118.429,223.895 118.368,223.932 118.309 C 224.029 118.151,223.182 117.971,222.967 118.104 C 222.847 118.178,222.829 118.141,222.916 118.002 C 223.016 117.839,222.942 117.806,222.613 117.868 C 222.373 117.914,222.211 117.897,222.252 117.830 C 222.341 117.686,220.698 117.352,219.750 117.322 C 218.717 117.289,214.001 117.285,213.208 117.317 C 212.819 117.333,212.500 117.422,212.500 117.516 C 212.500 117.610,212.422 117.638,212.327 117.580 C 212.041 117.402,210.749 117.676,211.020 117.857 C 211.171 117.958,211.079 117.974,210.750 117.903 C 210.371 117.822,205.926 113.476,192.410 99.974 C 182.597 90.173,174.504 82.212,174.425 82.285 C 174.344 82.358,174.335 82.269,174.404 82.083 C 174.595 81.572,174.697 81.121,174.716 80.708 C 174.726 80.502,174.789 80.333,174.856 80.333 C 174.986 80.333,174.991 80.292,175.048 78.808 C 175.067 78.289,175.123 77.890,175.171 77.919 C 175.219 77.949,175.262 77.158,175.267 76.162 C 175.271 75.165,175.232 74.377,175.179 74.409 C 175.126 74.442,175.099 74.063,175.119 73.568 C 175.138 73.072,175.092 72.667,175.017 72.667 C 174.941 72.667,174.901 72.464,174.929 72.216 C 174.956 71.969,174.929 71.687,174.869 71.591 C 174.809 71.495,174.751 71.265,174.741 71.080 C 174.731 70.896,174.660 70.521,174.583 70.247 C 174.506 69.974,174.433 69.712,174.421 69.667 C 174.408 69.621,174.340 69.340,174.269 69.042 C 174.198 68.744,174.090 68.500,174.028 68.500 C 173.967 68.500,173.907 68.328,173.895 68.117 C 173.883 67.907,173.726 67.401,173.546 66.993 C 173.366 66.584,173.123 66.006,173.006 65.708 C 172.889 65.410,172.723 65.167,172.637 65.167 C 172.551 65.167,172.525 65.094,172.580 65.006 C 172.634 64.918,172.526 64.693,172.339 64.506 C 172.153 64.319,172.001 64.110,172.001 64.042 C 172.002 63.973,171.890 63.785,171.753 63.625 C 171.616 63.465,171.542 63.333,171.589 63.333 C 171.636 63.333,171.552 63.146,171.402 62.918 C 171.253 62.690,171.045 62.552,170.940 62.611 C 170.836 62.671,170.804 62.661,170.869 62.588 C 171.045 62.393,170.681 61.805,170.466 61.938 C 170.352 62.008,170.329 61.975,170.405 61.852 C 170.559 61.602,170.191 61.132,169.955 61.278 C 169.853 61.341,169.832 61.304,169.905 61.186 C 170.048 60.954,167.367 58.126,167.138 58.268 C 167.058 58.317,167.012 58.259,167.038 58.137 C 167.063 58.015,166.954 57.927,166.793 57.940 C 166.634 57.952,166.540 57.904,166.584 57.833 C 166.707 57.633,165.523 56.799,165.307 56.933 C 165.191 57.005,165.161 56.978,165.230 56.866 C 165.366 56.646,164.588 56.093,164.349 56.240 C 164.258 56.297,164.101 56.188,164.000 56.000 C 163.899 55.812,163.734 55.708,163.633 55.771 C 163.532 55.833,163.367 55.776,163.266 55.644 C 162.956 55.236,161.851 54.636,161.644 54.764 C 161.516 54.843,161.493 54.812,161.578 54.675 C 161.675 54.518,161.612 54.495,161.333 54.583 C 161.092 54.660,160.996 54.641,161.064 54.531 C 161.186 54.335,159.488 53.638,158.808 53.605 C 158.565 53.593,158.405 53.521,158.452 53.444 C 158.499 53.367,158.360 53.322,158.144 53.344 C 157.927 53.366,157.550 53.302,157.305 53.201 C 156.844 53.012,156.718 52.995,155.544 52.974 C 155.156 52.966,154.878 52.895,154.928 52.816 C 154.977 52.736,154.582 52.708,154.050 52.754 C 153.375 52.812,153.159 52.787,153.333 52.671 C 153.508 52.555,153.081 52.505,151.917 52.505 C 150.760 52.505,150.326 52.556,150.500 52.670 M143.986 54.062 C 143.816 54.214,142.833 54.667,142.833 54.593 C 142.833 54.489,143.697 54.016,143.903 54.007 C 143.987 54.003,144.024 54.028,143.986 54.062 M202.833 55.750 C 203.144 56.071,203.436 56.333,203.482 56.333 C 203.528 56.333,203.311 56.071,203.000 55.750 C 202.689 55.429,202.397 55.167,202.351 55.167 C 202.305 55.167,202.522 55.429,202.833 55.750 M205.500 58.417 C 205.811 58.737,206.103 59.000,206.149 59.000 C 206.195 59.000,205.978 58.737,205.667 58.417 C 205.356 58.096,205.064 57.833,205.018 57.833 C 204.972 57.833,205.189 58.096,205.500 58.417 M208.167 61.083 C 208.478 61.404,208.770 61.667,208.815 61.667 C 208.861 61.667,208.644 61.404,208.333 61.083 C 208.022 60.762,207.730 60.500,207.685 60.500 C 207.639 60.500,207.856 60.762,208.167 61.083 M210.833 63.750 C 211.144 64.071,211.436 64.333,211.482 64.333 C 211.528 64.333,211.311 64.071,211.000 63.750 C 210.689 63.429,210.397 63.167,210.351 63.167 C 210.305 63.167,210.522 63.429,210.833 63.750 M148.750 65.167 C 149.755 66.175,150.540 67.000,150.494 67.000 C 150.448 67.000,149.589 66.175,148.583 65.167 C 147.578 64.158,146.793 63.333,146.839 63.333 C 146.885 63.333,147.745 64.158,148.750 65.167 M187.489 65.884 L 187.895 66.417 187.364 65.927 C 186.812 65.418,186.749 65.327,186.958 65.343 C 187.027 65.348,187.266 65.591,187.489 65.884 M213.500 66.417 C 213.811 66.737,214.103 67.000,214.149 67.000 C 214.195 67.000,213.978 66.737,213.667 66.417 C 213.356 66.096,213.064 65.833,213.018 65.833 C 212.972 65.833,213.189 66.096,213.500 66.417 M216.167 69.083 C 216.478 69.404,216.770 69.667,216.815 69.667 C 216.861 69.667,216.644 69.404,216.333 69.083 C 216.022 68.762,215.730 68.500,215.685 68.500 C 215.639 68.500,215.856 68.762,216.167 69.083 M218.833 71.750 C 219.144 72.071,219.436 72.333,219.482 72.333 C 219.528 72.333,219.311 72.071,219.000 71.750 C 218.689 71.429,218.397 71.167,218.351 71.167 C 218.305 71.167,218.522 71.429,218.833 71.750 M143.833 75.250 C 144.701 76.121,145.373 76.833,145.327 76.833 C 145.281 76.833,144.534 76.121,143.667 75.250 C 142.799 74.379,142.127 73.667,142.173 73.667 C 142.219 73.667,142.966 74.379,143.833 75.250 M230.667 76.018 C 230.667 76.119,230.549 76.157,230.405 76.102 C 229.912 75.913,229.403 76.384,220.197 85.560 C 211.407 94.321,210.487 95.311,210.415 96.083 C 210.398 96.267,210.326 96.549,210.256 96.710 C 210.187 96.872,210.203 97.097,210.294 97.210 C 210.384 97.324,210.432 97.577,210.400 97.773 C 210.334 98.174,210.989 99.250,211.298 99.250 C 211.409 99.250,211.493 99.313,211.484 99.391 C 211.459 99.608,212.357 100.489,212.565 100.450 C 212.667 100.432,212.735 100.499,212.717 100.599 C 212.683 100.787,213.817 101.981,214.042 101.993 C 214.110 101.997,214.159 102.045,214.150 102.099 C 214.120 102.281,215.045 103.151,215.232 103.117 C 215.334 103.099,215.402 103.166,215.384 103.266 C 215.349 103.455,216.454 104.615,216.750 104.701 C 216.842 104.728,216.901 104.796,216.883 104.851 C 216.842 104.973,217.742 105.855,217.943 105.891 C 218.020 105.905,218.068 105.962,218.050 106.018 C 217.880 106.527,219.426 107.283,219.677 106.814 C 219.772 106.636,219.909 106.527,219.981 106.572 C 220.053 106.616,220.402 106.356,220.757 105.993 C 221.111 105.630,221.345 105.333,221.277 105.333 C 221.209 105.333,221.475 105.019,221.868 104.635 C 222.261 104.251,222.628 103.947,222.683 103.960 C 222.738 103.973,223.072 103.687,223.425 103.325 C 223.778 102.963,224.012 102.667,223.943 102.667 C 223.875 102.667,224.141 102.353,224.535 101.969 C 224.928 101.585,225.295 101.281,225.349 101.293 C 225.404 101.306,225.738 101.020,226.092 100.658 C 226.445 100.296,226.678 100.000,226.610 100.000 C 226.542 100.000,226.808 99.686,227.201 99.302 C 227.595 98.918,227.961 98.614,228.016 98.627 C 228.071 98.639,228.405 98.353,228.758 97.991 C 229.112 97.630,229.345 97.333,229.277 97.333 C 229.209 97.333,229.475 97.019,229.868 96.635 C 230.261 96.251,230.628 95.947,230.683 95.960 C 230.738 95.973,231.072 95.687,231.425 95.325 C 231.778 94.963,232.012 94.667,231.943 94.667 C 231.875 94.667,232.141 94.353,232.535 93.969 C 232.928 93.585,233.295 93.281,233.349 93.293 C 233.404 93.306,233.738 93.020,234.092 92.658 C 234.445 92.296,234.678 92.000,234.610 92.000 C 234.542 92.000,234.808 91.686,235.201 91.302 C 235.595 90.918,235.961 90.614,236.016 90.627 C 236.071 90.639,236.405 90.353,236.758 89.991 C 237.112 89.630,237.345 89.333,237.277 89.333 C 237.209 89.333,237.475 89.019,237.868 88.635 C 238.261 88.251,238.628 87.947,238.683 87.960 C 238.738 87.973,239.072 87.687,239.425 87.325 C 239.778 86.963,240.012 86.667,239.943 86.667 C 239.875 86.667,240.141 86.353,240.535 85.969 C 240.928 85.585,241.293 85.280,241.346 85.292 C 241.971 85.434,240.779 84.030,237.405 80.649 C 233.334 76.569,232.575 75.918,232.102 76.099 C 231.954 76.156,231.833 76.119,231.833 76.018 C 231.833 75.916,231.571 75.833,231.250 75.833 C 230.929 75.833,230.667 75.916,230.667 76.018 M234.428 99.822 C 227.700 106.551,223.430 110.942,223.415 111.149 C 223.400 111.345,223.660 111.751,224.028 112.111 C 224.379 112.454,224.667 112.672,224.667 112.597 C 224.667 112.521,224.778 112.552,224.915 112.665 C 225.051 112.778,225.128 112.928,225.085 112.997 C 225.043 113.066,225.156 113.256,225.337 113.420 C 225.518 113.584,225.667 113.660,225.667 113.589 C 225.667 113.517,225.778 113.552,225.915 113.665 C 226.051 113.778,226.129 113.925,226.088 113.992 C 226.047 114.058,226.311 114.402,226.674 114.757 C 227.036 115.111,227.333 115.339,227.333 115.263 C 227.333 115.188,227.445 115.219,227.581 115.332 C 227.718 115.445,227.795 115.594,227.752 115.663 C 227.709 115.732,227.823 115.923,228.004 116.087 C 228.185 116.251,228.333 116.327,228.333 116.255 C 228.333 116.184,228.445 116.219,228.581 116.332 C 228.718 116.445,228.796 116.592,228.755 116.658 C 228.714 116.725,228.977 117.069,229.340 117.423 C 229.703 117.778,230.000 118.006,230.000 117.930 C 230.000 117.854,230.112 117.885,230.248 117.998 C 230.385 118.112,230.461 118.261,230.419 118.330 C 230.376 118.399,230.489 118.590,230.671 118.754 C 230.852 118.918,231.000 118.993,231.000 118.922 C 231.000 118.851,231.112 118.885,231.248 118.998 C 231.385 119.112,231.463 119.259,231.422 119.325 C 231.381 119.392,231.644 119.736,232.007 120.090 C 232.370 120.444,232.667 120.672,232.667 120.597 C 232.667 120.521,232.778 120.552,232.915 120.665 C 233.051 120.778,233.128 120.928,233.085 120.997 C 233.043 121.066,233.156 121.256,233.337 121.420 C 233.518 121.584,233.667 121.660,233.667 121.589 C 233.667 121.517,233.778 121.552,233.915 121.665 C 234.051 121.778,234.129 121.925,234.088 121.992 C 234.047 122.058,234.311 122.402,234.674 122.757 C 235.036 123.111,235.333 123.339,235.333 123.263 C 235.333 123.188,235.445 123.219,235.581 123.332 C 235.718 123.445,235.795 123.594,235.752 123.663 C 235.709 123.732,235.823 123.923,236.004 124.087 C 236.185 124.251,236.333 124.327,236.333 124.255 C 236.333 124.184,236.445 124.219,236.581 124.332 C 236.718 124.445,236.796 124.592,236.755 124.658 C 236.714 124.725,236.977 125.069,237.340 125.423 C 237.703 125.778,238.000 126.006,238.000 125.930 C 238.000 125.854,238.112 125.885,238.248 125.998 C 238.385 126.112,238.461 126.261,238.419 126.330 C 238.376 126.399,238.489 126.590,238.671 126.754 C 238.852 126.918,239.000 126.993,239.000 126.922 C 239.000 126.851,239.112 126.885,239.248 126.998 C 239.385 127.112,239.463 127.259,239.422 127.325 C 239.381 127.392,239.644 127.736,240.007 128.090 C 240.370 128.444,240.667 128.672,240.667 128.597 C 240.667 128.521,240.778 128.552,240.915 128.665 C 241.051 128.778,241.128 128.928,241.085 128.997 C 241.043 129.066,241.156 129.256,241.337 129.420 C 241.518 129.584,241.667 129.660,241.667 129.589 C 241.667 129.517,241.778 129.552,241.915 129.665 C 242.051 129.778,242.129 129.925,242.088 129.992 C 242.047 130.058,242.311 130.402,242.674 130.757 C 243.036 131.111,243.333 131.339,243.333 131.263 C 243.333 131.188,243.445 131.219,243.581 131.332 C 243.718 131.445,243.795 131.594,243.752 131.663 C 243.709 131.732,243.823 131.923,244.004 132.087 C 244.185 132.251,244.333 132.327,244.333 132.255 C 244.333 132.184,244.445 132.219,244.581 132.332 C 244.718 132.445,244.791 132.600,244.744 132.677 C 244.645 132.837,245.631 133.605,245.853 133.542 C 245.934 133.519,245.981 133.556,245.958 133.625 C 245.935 133.694,245.992 133.779,246.083 133.814 C 246.175 133.849,246.346 134.015,246.463 134.182 C 246.583 134.354,246.785 134.444,246.928 134.389 C 247.087 134.328,247.162 134.377,247.132 134.521 C 247.105 134.647,247.177 134.731,247.292 134.708 C 247.406 134.685,247.500 134.739,247.500 134.828 C 247.500 134.917,247.625 134.942,247.777 134.883 C 247.943 134.819,248.013 134.844,247.951 134.945 C 247.800 135.189,249.071 135.859,249.427 135.723 C 249.646 135.639,249.686 135.668,249.583 135.833 C 249.482 135.997,249.520 136.028,249.723 135.950 C 249.881 135.889,250.000 135.925,250.000 136.033 C 250.000 136.137,250.049 136.173,250.110 136.113 C 250.170 136.052,250.320 136.086,250.443 136.189 C 250.566 136.291,250.667 136.318,250.667 136.250 C 250.667 136.182,250.779 136.219,250.917 136.333 C 251.054 136.447,251.167 136.485,251.167 136.417 C 251.167 136.348,251.275 136.383,251.408 136.493 C 251.540 136.603,251.972 136.721,252.366 136.755 C 252.761 136.789,253.083 136.826,253.083 136.838 C 253.083 137.388,259.899 136.833,260.910 136.201 C 261.005 136.142,261.233 136.071,261.417 136.045 C 261.975 135.965,262.667 135.637,262.667 135.452 C 262.667 135.356,262.714 135.325,262.771 135.382 C 262.926 135.537,263.777 135.055,263.895 134.746 C 263.952 134.599,264.074 134.526,264.167 134.583 C 264.260 134.641,264.381 134.571,264.435 134.428 C 264.490 134.285,264.602 134.210,264.684 134.261 C 264.766 134.312,264.833 134.274,264.833 134.177 C 264.833 134.079,264.942 134.000,265.074 134.000 C 265.206 134.000,265.412 133.864,265.532 133.697 C 265.652 133.531,265.886 133.344,266.052 133.282 C 266.227 133.217,266.304 133.087,266.235 132.975 C 266.165 132.863,266.188 132.827,266.288 132.889 C 266.383 132.948,266.774 132.641,267.157 132.206 C 267.539 131.772,267.960 131.298,268.093 131.153 C 268.225 131.007,268.333 130.842,268.333 130.785 C 268.333 130.728,268.525 130.490,268.759 130.256 C 268.993 130.022,269.143 129.763,269.091 129.680 C 269.040 129.596,269.063 129.503,269.142 129.473 C 269.305 129.410,270.066 127.818,270.026 127.625 C 270.012 127.556,270.067 127.500,270.149 127.500 C 270.231 127.500,270.342 127.384,270.397 127.241 C 270.453 127.095,270.426 127.026,270.333 127.083 C 270.241 127.140,270.213 127.072,270.270 126.925 C 270.324 126.783,270.444 126.667,270.536 126.667 C 270.627 126.667,270.659 126.554,270.606 126.417 C 270.554 126.279,270.596 126.167,270.700 126.167 C 270.804 126.167,270.840 126.117,270.779 126.057 C 270.719 125.997,270.752 125.848,270.853 125.726 C 270.955 125.604,270.992 125.387,270.937 125.243 C 270.873 125.076,270.904 125.024,271.024 125.098 C 271.153 125.178,271.188 125.052,271.136 124.699 C 271.094 124.416,271.117 124.219,271.186 124.262 C 271.335 124.354,271.351 124.057,271.343 121.333 C 271.334 118.308,271.335 118.313,271.171 118.414 C 271.088 118.465,271.054 118.323,271.095 118.097 C 271.136 117.872,271.093 117.641,270.999 117.582 C 270.905 117.524,270.865 117.417,270.910 117.344 C 271.027 117.154,270.334 115.167,270.151 115.167 C 270.068 115.167,270.018 115.110,270.040 115.042 C 270.106 114.831,269.636 113.833,269.470 113.833 C 269.384 113.833,269.360 113.758,269.417 113.667 C 269.473 113.575,269.440 113.500,269.343 113.500 C 269.246 113.500,269.176 113.444,269.186 113.375 C 269.242 113.026,269.146 112.826,268.974 112.933 C 268.854 113.007,268.827 112.978,268.903 112.855 C 268.974 112.741,268.729 112.295,268.318 111.788 C 267.612 110.917,245.659 88.833,245.500 88.833 C 245.454 88.833,240.471 93.778,234.428 99.822 M224.500 155.951 C 224.500 156.077,224.350 155.944,223.660 155.208 L 222.917 154.417 223.708 155.160 C 224.144 155.568,224.500 155.925,224.500 155.951 M62.222 182.364 C 62.082 182.519,62.024 182.737,62.093 182.849 C 62.166 182.967,62.149 183.009,62.051 182.948 C 61.959 182.891,61.780 183.048,61.655 183.297 C 61.529 183.546,61.293 183.928,61.132 184.145 C 60.970 184.362,60.886 184.624,60.946 184.728 C 61.005 184.832,60.992 184.861,60.916 184.792 C 60.747 184.639,59.616 186.283,59.745 186.493 C 59.797 186.576,59.751 186.698,59.644 186.764 C 59.511 186.846,59.492 186.809,59.584 186.651 C 59.972 185.983,59.367 186.833,57.933 188.972 C 57.052 190.286,56.381 191.449,56.442 191.556 C 56.503 191.663,56.492 191.694,56.417 191.626 C 56.341 191.558,56.198 191.640,56.098 191.810 C 55.998 191.979,55.403 192.873,54.774 193.797 C 54.045 194.868,53.678 195.556,53.759 195.696 C 53.829 195.817,53.824 195.860,53.748 195.791 C 53.573 195.632,52.650 197.004,52.785 197.223 C 52.840 197.312,52.799 197.332,52.692 197.266 C 52.518 197.158,52.423 197.366,52.484 197.721 C 52.498 197.796,52.435 197.813,52.346 197.758 C 52.172 197.650,51.793 198.219,51.923 198.395 C 51.965 198.453,51.950 198.462,51.888 198.416 C 51.718 198.288,50.821 199.718,50.915 199.967 C 50.959 200.086,50.922 200.138,50.831 200.082 C 50.741 200.026,50.657 200.060,50.646 200.157 C 50.634 200.254,50.616 200.402,50.604 200.486 C 50.593 200.570,50.515 200.701,50.432 200.778 C 50.343 200.858,50.330 200.829,50.400 200.708 C 50.466 200.594,50.488 200.500,50.449 200.500 C 50.317 200.500,49.444 201.908,49.444 202.122 C 49.444 202.238,49.406 202.295,49.360 202.249 C 49.224 202.113,48.675 203.046,48.785 203.224 C 48.840 203.312,48.810 203.339,48.719 203.283 C 48.515 203.156,47.792 204.399,47.962 204.585 C 48.029 204.660,47.990 204.666,47.875 204.600 C 47.678 204.487,47.583 204.700,47.661 205.083 C 47.679 205.175,47.638 205.193,47.568 205.124 C 47.405 204.960,46.821 205.845,46.952 206.057 C 47.007 206.146,46.973 206.170,46.877 206.111 C 46.782 206.051,46.582 206.187,46.435 206.412 C 46.119 206.895,46.092 207.066,46.359 206.901 C 46.479 206.826,46.506 206.855,46.431 206.977 C 46.365 207.084,46.253 207.136,46.182 207.093 C 46.029 206.999,45.304 208.236,45.420 208.392 C 45.464 208.451,45.450 208.463,45.389 208.417 C 45.233 208.300,43.134 211.479,43.246 211.661 C 43.297 211.743,43.251 211.865,43.144 211.931 C 43.022 212.006,42.993 211.979,43.067 211.859 C 43.133 211.753,43.156 211.667,43.118 211.667 C 42.937 211.667,42.011 213.383,42.108 213.539 C 42.171 213.642,42.140 213.670,42.035 213.605 C 41.793 213.455,40.444 215.437,40.602 215.711 C 40.667 215.824,40.658 215.861,40.583 215.792 C 40.441 215.664,38.967 217.727,39.038 217.955 C 39.060 218.026,38.869 218.290,38.613 218.543 C 38.340 218.813,38.198 219.088,38.268 219.210 C 38.333 219.324,38.325 219.361,38.250 219.293 C 38.061 219.121,37.620 219.789,37.766 220.026 C 37.845 220.154,37.811 220.172,37.664 220.082 C 37.502 219.982,37.473 220.022,37.553 220.231 C 37.618 220.401,37.596 220.476,37.498 220.415 C 37.340 220.318,37.256 220.564,37.327 220.917 C 37.346 221.008,37.306 221.028,37.239 220.961 C 37.070 220.792,35.653 222.839,35.782 223.066 C 35.840 223.167,35.825 223.194,35.750 223.126 C 35.561 222.955,34.789 224.127,34.934 224.362 C 35.006 224.478,34.977 224.506,34.859 224.433 C 34.678 224.320,34.586 224.545,34.661 224.917 C 34.679 225.008,34.639 225.028,34.571 224.959 C 34.411 224.800,33.950 225.450,34.076 225.655 C 34.129 225.741,34.084 225.865,33.977 225.931 C 33.855 226.006,33.826 225.979,33.901 225.859 C 33.966 225.753,33.988 225.667,33.949 225.667 C 33.785 225.667,32.995 227.024,33.080 227.161 C 33.131 227.243,33.084 227.365,32.977 227.431 C 32.848 227.511,32.823 227.473,32.903 227.317 C 32.970 227.189,32.901 227.233,32.750 227.417 C 32.422 227.814,31.958 228.667,32.071 228.667 C 32.114 228.667,31.891 228.948,31.575 229.292 C 31.258 229.635,31.036 230.014,31.081 230.134 C 31.126 230.253,31.095 230.309,31.012 230.258 C 30.844 230.154,30.111 231.251,30.111 231.606 C 30.111 231.731,30.078 231.800,30.038 231.760 C 29.971 231.693,27.167 235.783,27.167 235.948 C 27.167 235.987,27.253 235.966,27.359 235.901 C 27.482 235.825,27.506 235.855,27.426 235.985 C 27.357 236.097,27.258 236.147,27.206 236.095 C 27.064 235.953,26.347 237.218,26.457 237.414 C 26.510 237.507,26.492 237.528,26.418 237.461 C 26.343 237.393,26.116 237.563,25.912 237.839 C 25.500 238.398,25.292 243.167,25.680 243.167 C 25.775 243.167,25.805 243.244,25.746 243.339 C 25.588 243.595,26.179 245.346,26.381 245.221 C 26.475 245.163,26.502 245.195,26.442 245.293 C 26.304 245.515,26.489 246.027,26.667 245.917 C 26.817 245.823,27.053 246.336,26.921 246.468 C 26.873 246.516,26.833 246.456,26.833 246.333 C 26.833 246.211,26.794 246.150,26.746 246.198 C 26.591 246.354,26.863 246.835,27.043 246.723 C 27.145 246.660,27.169 246.695,27.099 246.807 C 26.953 247.044,27.394 247.712,27.583 247.541 C 27.659 247.472,27.673 247.499,27.616 247.600 C 27.365 248.040,30.260 251.001,30.685 250.739 C 30.809 250.662,30.841 250.686,30.770 250.802 C 30.627 251.033,32.162 252.191,32.467 252.082 C 32.586 252.039,32.643 252.070,32.593 252.151 C 32.476 252.341,32.974 252.536,33.207 252.391 C 33.308 252.330,33.336 252.360,33.274 252.462 C 33.156 252.652,34.790 253.348,35.458 253.392 C 35.664 253.406,35.833 253.473,35.833 253.541 C 35.833 253.610,109.671 253.666,199.917 253.666 C 305.590 253.666,364.000 253.609,364.000 253.505 C 364.000 253.416,364.125 253.392,364.277 253.450 C 364.475 253.526,364.517 253.495,364.423 253.344 C 364.325 253.184,364.386 253.161,364.666 253.250 C 365.159 253.406,367.406 252.281,367.879 251.641 C 368.066 251.387,368.277 251.215,368.346 251.258 C 368.416 251.301,368.621 251.148,368.802 250.918 C 368.983 250.688,369.208 250.500,369.301 250.500 C 369.572 250.500,370.347 249.490,370.225 249.293 C 370.160 249.188,370.194 249.164,370.308 249.234 C 370.413 249.299,370.509 249.274,370.521 249.177 C 370.532 249.079,370.551 248.944,370.563 248.875 C 370.574 248.806,370.755 248.579,370.964 248.369 C 371.174 248.159,371.294 247.904,371.230 247.802 C 371.162 247.691,371.190 247.662,371.299 247.729 C 371.501 247.853,371.887 247.276,371.716 247.105 C 371.658 247.047,371.697 247.000,371.801 247.000 C 372.030 247.000,372.530 246.086,372.382 245.938 C 372.325 245.880,372.370 245.833,372.482 245.833 C 372.594 245.833,372.640 245.758,372.583 245.667 C 372.527 245.575,372.554 245.500,372.643 245.500 C 372.795 245.500,373.304 244.363,373.393 243.825 C 373.415 243.692,373.515 243.433,373.617 243.250 C 373.718 243.067,373.806 242.860,373.814 242.790 C 373.821 242.720,373.943 242.439,374.084 242.165 C 374.226 241.891,374.301 241.667,374.250 241.667 C 374.200 241.667,374.279 241.483,374.427 241.258 C 374.752 240.761,374.656 240.415,373.996 239.713 C 373.718 239.417,373.498 239.154,373.507 239.129 C 373.563 238.971,373.125 238.125,372.840 237.840 C 372.653 237.653,372.517 237.481,372.537 237.458 C 372.576 237.414,371.505 235.808,371.343 235.667 C 371.290 235.621,371.098 235.294,370.915 234.940 C 370.733 234.586,370.490 234.260,370.376 234.214 C 370.262 234.169,370.210 234.065,370.261 233.983 C 370.312 233.900,370.269 233.833,370.167 233.833 C 370.064 233.833,370.027 233.758,370.084 233.665 C 370.141 233.573,370.071 233.453,369.928 233.398 C 369.785 233.343,369.710 233.231,369.762 233.148 C 369.813 233.065,369.738 232.953,369.595 232.898 C 369.452 232.843,369.377 232.731,369.428 232.648 C 369.479 232.565,369.404 232.453,369.262 232.398 C 369.119 232.343,369.043 232.231,369.094 232.149 C 369.145 232.067,369.117 232.000,369.032 232.000 C 368.821 232.000,367.918 230.631,367.968 230.388 C 367.991 230.280,367.920 230.137,367.812 230.070 C 367.680 229.989,367.660 230.021,367.750 230.167 C 367.837 230.308,367.820 230.345,367.700 230.270 C 367.598 230.207,367.557 230.047,367.608 229.913 C 367.660 229.777,367.583 229.624,367.434 229.567 C 367.287 229.510,367.167 229.360,367.167 229.232 C 367.167 229.104,367.092 229.000,367.000 229.000 C 366.908 229.000,366.833 228.887,366.833 228.750 C 366.833 228.612,366.758 228.500,366.667 228.500 C 366.575 228.500,366.500 228.396,366.500 228.268 C 366.500 228.140,366.377 227.988,366.226 227.931 C 366.076 227.873,366.000 227.778,366.059 227.719 C 366.117 227.661,365.978 227.367,365.749 227.067 C 365.520 226.768,365.333 226.446,365.333 226.353 C 365.333 226.260,365.202 226.110,365.042 226.020 C 364.881 225.930,364.774 225.811,364.803 225.755 C 364.891 225.583,363.939 224.185,363.794 224.274 C 363.719 224.320,363.679 224.296,363.703 224.221 C 363.768 224.022,363.003 222.833,362.810 222.833 C 362.720 222.833,362.690 222.764,362.742 222.680 C 362.794 222.596,362.742 222.425,362.627 222.301 C 362.511 222.177,362.400 221.991,362.380 221.887 C 362.360 221.783,361.965 221.185,361.502 220.557 C 361.038 219.930,360.605 219.341,360.538 219.249 C 360.471 219.157,360.237 218.744,360.018 218.332 C 359.799 217.920,359.462 217.446,359.268 217.277 C 359.075 217.109,359.029 217.021,359.167 217.081 C 359.304 217.142,359.271 217.073,359.093 216.929 C 358.915 216.785,358.840 216.664,358.926 216.661 C 359.013 216.658,358.938 216.546,358.760 216.411 C 358.582 216.277,358.502 216.167,358.583 216.167 C 358.664 216.167,358.616 216.073,358.477 215.958 C 358.142 215.682,356.920 213.931,357.171 214.086 C 357.447 214.257,357.127 213.689,356.680 213.215 C 356.489 213.013,356.333 212.769,356.333 212.674 C 356.333 212.578,356.258 212.500,356.167 212.500 C 356.075 212.500,356.000 212.396,356.000 212.268 C 356.000 212.140,355.883 211.991,355.739 211.936 C 355.596 211.881,355.526 211.760,355.583 211.668 C 355.640 211.576,355.607 211.500,355.510 211.500 C 355.413 211.500,355.333 211.401,355.333 211.279 C 355.333 211.158,355.148 210.884,354.922 210.671 C 354.695 210.459,354.548 210.224,354.595 210.149 C 354.641 210.074,354.526 209.859,354.339 209.673 C 354.153 209.486,354.040 209.333,354.089 209.333 C 354.255 209.333,353.835 208.689,353.165 207.914 C 352.798 207.491,352.347 206.812,352.162 206.405 C 351.976 205.999,351.747 205.667,351.653 205.667 C 351.558 205.667,351.527 205.591,351.584 205.499 C 351.641 205.407,351.568 205.285,351.422 205.229 C 351.276 205.173,351.006 204.795,350.821 204.389 C 350.636 203.983,350.338 203.505,350.159 203.326 C 349.980 203.147,349.881 203.000,349.939 203.000 C 349.998 203.000,349.849 202.803,349.609 202.563 C 349.368 202.323,349.211 202.063,349.259 201.986 C 349.306 201.909,349.193 201.693,349.006 201.506 C 348.819 201.319,348.723 201.165,348.792 201.163 C 348.860 201.161,348.729 201.004,348.500 200.815 C 348.271 200.626,348.196 200.529,348.333 200.601 C 348.570 200.724,348.369 200.364,347.998 200.000 C 347.952 199.954,347.697 199.579,347.431 199.167 C 347.166 198.754,346.847 198.356,346.721 198.281 C 346.596 198.207,346.536 198.076,346.590 197.990 C 346.643 197.904,346.602 197.833,346.500 197.833 C 346.398 197.833,346.353 197.770,346.401 197.692 C 346.449 197.614,346.341 197.392,346.161 197.199 C 345.981 197.005,345.833 196.777,345.833 196.691 C 345.833 196.606,345.716 196.491,345.573 196.436 C 345.429 196.381,345.354 196.268,345.405 196.185 C 345.456 196.103,345.381 195.990,345.238 195.935 C 345.096 195.881,345.021 195.768,345.072 195.685 C 345.123 195.603,345.048 195.490,344.905 195.435 C 344.762 195.381,344.693 195.260,344.750 195.167 C 344.807 195.074,344.737 194.953,344.594 194.898 C 344.451 194.843,344.333 194.693,344.333 194.566 C 344.333 194.438,344.268 194.333,344.188 194.333 C 344.107 194.333,344.000 194.125,343.949 193.870 C 343.898 193.615,343.667 193.203,343.436 192.953 C 343.205 192.704,343.060 192.500,343.114 192.500 C 343.168 192.500,343.012 192.300,342.767 192.055 C 342.522 191.810,342.208 191.370,342.069 191.077 C 341.930 190.785,341.689 190.401,341.533 190.224 C 341.378 190.048,341.227 189.794,341.199 189.660 C 341.171 189.526,341.026 189.323,340.876 189.208 C 340.726 189.094,340.655 189.000,340.719 189.000 C 340.784 189.000,340.487 188.475,340.060 187.833 C 339.634 187.192,339.229 186.667,339.160 186.667 C 339.092 186.667,338.914 186.362,338.765 185.989 C 338.616 185.617,338.289 185.117,338.039 184.879 C 337.788 184.640,337.696 184.501,337.833 184.568 C 337.971 184.636,337.933 184.570,337.750 184.422 C 337.567 184.274,337.426 184.099,337.438 184.034 C 337.455 183.940,336.668 182.681,336.376 182.333 C 336.146 182.061,62.468 182.092,62.222 182.364 M265.305 191.625 C 229.128 191.648,169.878 191.648,133.639 191.625 C 97.400 191.602,127.000 191.583,199.417 191.583 C 271.833 191.583,301.483 191.602,265.305 191.625 M331.106 192.082 C 331.159 192.219,331.287 192.282,331.392 192.222 C 331.497 192.162,331.530 192.173,331.464 192.245 C 331.310 192.416,331.639 193.037,331.823 192.923 C 331.900 192.876,331.952 192.967,331.940 193.127 C 331.927 193.286,332.002 193.401,332.105 193.382 C 332.209 193.362,332.284 193.475,332.272 193.632 C 332.260 193.788,332.349 193.896,332.471 193.871 C 332.592 193.846,332.646 193.899,332.589 193.990 C 332.498 194.138,333.274 195.500,333.449 195.500 C 333.488 195.500,333.466 195.413,333.401 195.308 C 333.326 195.187,333.355 195.160,333.477 195.236 C 333.584 195.302,333.633 195.419,333.586 195.496 C 333.456 195.706,333.678 196.179,333.855 196.070 C 333.939 196.018,333.998 196.037,333.984 196.113 C 333.928 196.436,334.011 196.680,334.148 196.595 C 334.229 196.545,334.285 196.634,334.273 196.793 C 334.260 196.954,334.349 197.063,334.471 197.038 C 334.592 197.012,334.651 197.058,334.601 197.138 C 334.551 197.218,334.626 197.427,334.768 197.600 C 334.911 197.777,334.979 197.806,334.921 197.667 C 334.864 197.529,334.951 197.598,335.115 197.820 C 335.278 198.041,335.412 198.341,335.414 198.486 C 335.415 198.631,335.502 198.734,335.605 198.715 C 335.709 198.696,335.784 198.808,335.772 198.965 C 335.760 199.122,335.835 199.234,335.939 199.215 C 336.043 199.196,336.118 199.308,336.105 199.465 C 336.093 199.622,336.183 199.729,336.304 199.704 C 336.425 199.679,336.477 199.735,336.419 199.829 C 336.277 200.059,336.852 201.008,337.056 200.882 C 337.145 200.827,337.173 200.855,337.118 200.944 C 336.982 201.163,338.906 204.035,339.082 203.875 C 339.158 203.806,339.168 203.841,339.104 203.952 C 338.954 204.213,339.818 205.529,340.046 205.388 C 340.145 205.327,340.168 205.363,340.099 205.474 C 340.034 205.580,340.060 205.667,340.157 205.667 C 340.254 205.667,340.315 205.726,340.292 205.797 C 340.224 206.010,341.545 207.992,341.693 207.900 C 341.768 207.854,341.788 207.925,341.737 208.058 C 341.686 208.191,341.736 208.356,341.848 208.426 C 341.989 208.513,342.010 208.480,341.916 208.317 C 341.837 208.181,341.842 208.140,341.929 208.220 C 342.012 208.295,342.080 208.483,342.081 208.637 C 342.082 208.791,342.168 208.901,342.272 208.882 C 342.376 208.862,342.451 208.975,342.439 209.132 C 342.427 209.288,342.516 209.396,342.637 209.371 C 342.759 209.346,342.812 209.400,342.755 209.491 C 342.623 209.705,343.156 210.526,343.350 210.407 C 343.430 210.357,343.454 210.425,343.403 210.558 C 343.352 210.691,343.402 210.856,343.514 210.926 C 343.653 211.011,343.675 210.982,343.583 210.833 C 343.496 210.692,343.514 210.655,343.634 210.730 C 343.735 210.793,343.779 210.947,343.731 211.072 C 343.683 211.197,343.736 211.356,343.848 211.426 C 343.987 211.511,344.009 211.482,343.917 211.333 C 343.827 211.188,343.847 211.155,343.977 211.236 C 344.084 211.302,344.129 211.426,344.076 211.511 C 343.960 211.699,344.513 212.678,344.678 212.576 C 344.743 212.536,344.785 212.634,344.773 212.793 C 344.759 212.971,344.847 213.062,345.000 213.028 C 345.137 212.997,345.196 213.026,345.131 213.091 C 344.974 213.248,345.309 213.868,345.490 213.756 C 345.566 213.709,345.619 213.801,345.606 213.960 C 345.594 214.120,345.668 214.234,345.772 214.215 C 345.876 214.196,345.951 214.308,345.939 214.465 C 345.927 214.622,346.002 214.734,346.105 214.715 C 346.209 214.696,346.284 214.808,346.272 214.965 C 346.260 215.122,346.344 215.231,346.458 215.208 C 346.573 215.185,346.658 215.223,346.647 215.292 C 346.595 215.623,346.683 215.843,346.831 215.751 C 346.922 215.695,346.959 215.747,346.914 215.866 C 346.811 216.139,348.732 219.046,348.902 218.875 C 348.971 218.806,349.013 218.825,348.994 218.917 C 348.922 219.273,349.008 219.515,349.171 219.414 C 349.265 219.356,349.331 219.370,349.318 219.446 C 349.259 219.786,349.348 220.011,349.504 219.914 C 349.598 219.856,349.664 219.870,349.651 219.946 C 349.589 220.301,349.684 220.509,349.859 220.401 C 349.971 220.331,350.007 220.355,349.943 220.457 C 349.819 220.657,352.297 224.437,352.513 224.377 C 352.591 224.355,352.615 224.441,352.566 224.568 C 352.517 224.696,352.569 224.856,352.681 224.926 C 352.820 225.011,352.842 224.982,352.750 224.833 C 352.660 224.688,352.680 224.655,352.810 224.736 C 352.918 224.802,352.964 224.924,352.913 225.006 C 352.789 225.207,353.669 226.518,353.852 226.405 C 353.931 226.356,353.954 226.425,353.903 226.558 C 353.852 226.691,353.902 226.856,354.014 226.926 C 354.153 227.011,354.175 226.982,354.083 226.833 C 353.993 226.688,354.014 226.655,354.144 226.736 C 354.251 226.802,354.296 226.926,354.243 227.011 C 354.113 227.222,354.579 227.862,354.750 227.707 C 354.825 227.639,354.835 227.674,354.771 227.785 C 354.641 228.012,356.139 230.370,356.336 230.248 C 356.406 230.205,356.452 230.301,356.440 230.460 C 356.427 230.620,356.508 230.732,356.619 230.710 C 356.730 230.689,356.781 230.775,356.733 230.902 C 356.684 231.029,356.736 231.190,356.848 231.259 C 356.987 231.345,357.009 231.315,356.917 231.167 C 356.827 231.021,356.847 230.989,356.977 231.069 C 357.084 231.135,357.129 231.260,357.075 231.346 C 356.947 231.554,357.584 232.357,357.755 232.203 C 357.827 232.137,357.833 232.177,357.767 232.291 C 357.626 232.536,358.163 233.522,358.368 233.395 C 358.445 233.348,358.498 233.370,358.484 233.446 C 358.425 233.786,358.515 234.011,358.671 233.914 C 358.765 233.856,358.831 233.870,358.818 233.946 C 358.759 234.286,358.848 234.511,359.004 234.414 C 359.098 234.356,359.164 234.370,359.151 234.446 C 359.092 234.786,359.181 235.011,359.337 234.914 C 359.431 234.856,359.498 234.870,359.484 234.946 C 359.425 235.286,359.515 235.511,359.671 235.414 C 359.765 235.356,359.831 235.370,359.818 235.446 C 359.759 235.786,359.848 236.011,360.004 235.914 C 360.098 235.856,360.164 235.870,360.151 235.946 C 360.089 236.301,360.184 236.509,360.359 236.401 C 360.475 236.329,360.506 236.355,360.439 236.464 C 360.306 236.679,362.302 239.706,362.496 239.586 C 362.569 239.540,362.619 239.634,362.606 239.793 C 362.594 239.954,362.682 240.063,362.804 240.038 C 362.925 240.012,362.981 240.062,362.929 240.147 C 362.778 240.391,363.013 240.844,363.226 240.722 C 363.331 240.662,363.363 240.673,363.298 240.745 C 363.127 240.934,363.482 241.531,363.689 241.403 C 363.783 241.345,363.745 241.520,363.604 241.794 C 363.462 242.067,363.400 242.350,363.465 242.422 C 363.530 242.494,363.490 242.499,363.375 242.434 C 363.188 242.326,363.090 242.515,363.147 242.875 C 363.158 242.944,363.110 242.982,363.042 242.961 C 362.879 242.910,361.910 243.879,361.961 244.041 C 362.049 244.323,37.877 244.187,37.769 243.906 C 37.714 243.763,37.593 243.693,37.500 243.750 C 37.407 243.807,37.286 243.738,37.231 243.595 C 37.177 243.452,37.053 243.384,36.957 243.443 C 36.858 243.504,36.831 243.472,36.894 243.370 C 36.956 243.269,36.727 242.981,36.378 242.721 C 35.038 241.724,35.024 241.684,35.675 240.738 C 35.954 240.332,36.145 240.000,36.099 240.000 C 36.053 240.000,36.203 239.812,36.433 239.582 C 36.664 239.351,36.798 239.078,36.733 238.973 C 36.663 238.860,36.689 238.827,36.796 238.893 C 36.964 238.997,37.274 238.407,37.200 238.125 C 37.182 238.056,37.242 238.000,37.333 238.000 C 37.425 238.000,37.500 237.887,37.500 237.750 C 37.500 237.612,37.573 237.500,37.662 237.500 C 37.863 237.500,39.556 235.012,39.556 234.716 C 39.556 234.597,39.593 234.537,39.638 234.583 C 39.684 234.628,39.959 234.272,40.250 233.791 C 40.555 233.288,40.711 232.871,40.618 232.810 C 40.529 232.751,40.617 232.652,40.814 232.590 C 41.011 232.527,41.131 232.410,41.081 232.330 C 41.031 232.249,41.145 232.101,41.333 232.000 C 41.522 231.899,41.632 231.745,41.578 231.658 C 41.524 231.571,41.561 231.500,41.659 231.500 C 41.886 231.500,42.511 230.487,42.398 230.303 C 42.352 230.228,42.398 230.167,42.500 230.167 C 42.602 230.167,42.640 230.092,42.583 230.000 C 42.527 229.908,42.547 229.833,42.629 229.833 C 42.710 229.833,43.029 229.483,43.336 229.054 C 43.644 228.626,43.788 228.332,43.656 228.402 C 43.525 228.472,43.604 228.366,43.833 228.167 C 44.063 227.967,44.137 227.854,44.000 227.915 C 43.862 227.975,43.900 227.901,44.083 227.751 C 44.267 227.600,44.398 227.407,44.375 227.322 C 44.352 227.236,44.400 227.167,44.481 227.167 C 44.647 227.167,45.135 226.473,45.204 226.138 C 45.229 226.017,45.362 225.826,45.500 225.714 C 45.637 225.602,45.697 225.508,45.633 225.505 C 45.569 225.502,45.698 225.303,45.922 225.062 C 46.145 224.822,46.291 224.567,46.248 224.496 C 46.204 224.426,46.291 224.321,46.441 224.264 C 46.592 224.206,46.667 224.111,46.608 224.053 C 46.550 223.994,46.657 223.838,46.846 223.706 C 47.034 223.574,47.150 223.363,47.102 223.238 C 47.054 223.113,47.098 222.959,47.200 222.896 C 47.319 222.823,47.341 222.865,47.261 223.016 C 47.193 223.145,47.296 223.063,47.489 222.833 C 47.683 222.604,47.886 222.210,47.941 221.958 C 47.996 221.706,48.104 221.500,48.179 221.500 C 48.383 221.500,49.338 220.060,49.216 219.938 C 49.158 219.880,49.190 219.833,49.286 219.833 C 49.493 219.833,50.056 219.019,50.056 218.721 C 50.056 218.607,50.118 218.553,50.194 218.601 C 50.335 218.687,50.399 218.438,50.342 218.025 C 50.325 217.901,50.385 217.845,50.474 217.901 C 50.564 217.956,50.738 217.776,50.860 217.501 C 50.982 217.225,51.138 217.000,51.207 217.000 C 51.277 217.000,51.333 216.887,51.333 216.750 C 51.333 216.612,51.408 216.500,51.500 216.500 C 51.592 216.500,51.667 216.396,51.667 216.268 C 51.667 216.140,51.784 215.991,51.927 215.936 C 52.071 215.881,52.141 215.760,52.084 215.668 C 52.027 215.576,52.061 215.500,52.159 215.500 C 52.404 215.500,53.007 214.480,52.882 214.278 C 52.827 214.188,52.868 214.168,52.974 214.234 C 53.080 214.299,53.167 214.284,53.167 214.200 C 53.167 214.115,53.352 213.774,53.578 213.440 C 53.805 213.106,53.940 212.833,53.880 212.833 C 53.819 212.833,53.915 212.723,54.093 212.589 C 54.271 212.454,54.346 212.342,54.260 212.339 C 54.174 212.336,54.249 212.215,54.426 212.071 C 54.604 211.927,54.637 211.857,54.500 211.917 C 54.362 211.976,54.400 211.902,54.583 211.753 C 54.767 211.604,54.894 211.372,54.867 211.238 C 54.840 211.104,54.915 211.015,55.034 211.039 C 55.153 211.063,55.231 210.990,55.208 210.875 C 55.185 210.760,55.233 210.667,55.314 210.667 C 55.499 210.667,56.056 209.831,56.056 209.554 C 56.056 209.441,56.160 209.307,56.288 209.258 C 56.416 209.209,56.479 209.101,56.428 209.019 C 56.377 208.936,56.452 208.823,56.595 208.769 C 56.738 208.714,56.813 208.601,56.762 208.519 C 56.710 208.436,56.791 208.321,56.941 208.264 C 57.092 208.206,57.167 208.111,57.108 208.053 C 57.050 207.994,57.157 207.838,57.346 207.706 C 57.534 207.574,57.650 207.363,57.602 207.238 C 57.554 207.113,57.598 206.959,57.700 206.896 C 57.820 206.822,57.837 206.859,57.750 207.000 C 57.658 207.149,57.680 207.178,57.819 207.092 C 57.931 207.023,57.983 206.864,57.935 206.738 C 57.887 206.613,57.931 206.459,58.033 206.396 C 58.145 206.327,58.171 206.358,58.099 206.474 C 58.034 206.580,58.020 206.667,58.069 206.667 C 58.226 206.667,58.657 205.713,58.549 205.604 C 58.491 205.547,58.530 205.500,58.634 205.500 C 58.852 205.500,60.556 203.038,60.556 202.724 C 60.556 202.608,60.654 202.476,60.775 202.430 C 60.896 202.384,60.949 202.228,60.893 202.083 C 60.828 201.913,60.874 201.837,61.021 201.868 C 61.163 201.898,61.230 201.800,61.197 201.608 C 61.165 201.423,61.215 201.344,61.322 201.410 C 61.420 201.470,61.500 201.403,61.500 201.260 C 61.500 201.117,61.575 201.000,61.667 201.000 C 61.758 201.000,61.833 200.887,61.833 200.750 C 61.833 200.612,61.908 200.500,62.000 200.500 C 62.092 200.500,62.167 200.429,62.167 200.342 C 62.167 200.255,62.356 199.979,62.588 199.729 C 62.819 199.480,63.245 198.857,63.535 198.346 C 63.824 197.835,64.253 197.158,64.489 196.842 C 64.724 196.526,64.804 196.326,64.667 196.398 C 64.529 196.470,64.604 196.366,64.833 196.167 C 65.063 195.967,65.137 195.855,65.000 195.917 C 64.862 195.978,64.938 195.866,65.167 195.667 C 65.396 195.467,65.482 195.357,65.358 195.422 C 65.177 195.517,65.170 195.472,65.321 195.191 C 65.423 194.998,65.662 194.758,65.851 194.657 C 66.041 194.556,66.158 194.435,66.111 194.389 C 66.065 194.343,66.174 194.159,66.353 193.980 C 66.532 193.801,66.639 193.590,66.590 193.511 C 66.542 193.433,66.619 193.323,66.762 193.269 C 66.904 193.214,66.979 193.101,66.928 193.019 C 66.877 192.936,66.952 192.823,67.095 192.769 C 67.238 192.714,67.313 192.601,67.262 192.519 C 67.210 192.436,67.285 192.323,67.428 192.269 C 67.571 192.214,67.641 192.093,67.584 192.001 C 67.514 191.889,110.828 191.833,199.245 191.833 C 315.991 191.833,331.021 191.862,331.106 192.082 M69.683 196.583 C 69.324 197.076,68.189 199.863,68.266 200.064 C 68.315 200.194,68.277 200.349,68.180 200.408 C 68.072 200.475,68.036 200.401,68.088 200.217 C 68.134 200.052,67.982 200.316,67.750 200.804 C 67.519 201.292,67.379 201.772,67.440 201.871 C 67.504 201.974,67.474 202.004,67.371 201.940 C 67.150 201.803,66.932 202.417,67.099 202.707 C 67.166 202.822,67.158 202.861,67.083 202.792 C 67.008 202.724,66.808 202.976,66.640 203.352 C 66.277 204.163,66.269 204.219,66.542 204.081 C 66.656 204.023,66.631 204.075,66.486 204.196 C 66.096 204.521,65.801 205.146,65.935 205.363 C 66.001 205.470,65.978 205.506,65.880 205.446 C 65.673 205.318,64.957 206.962,65.111 207.211 C 65.178 207.320,65.136 207.334,64.997 207.248 C 64.836 207.149,64.806 207.189,64.886 207.398 C 64.952 207.568,64.929 207.643,64.831 207.582 C 64.681 207.489,64.602 207.755,64.622 208.290 C 64.626 208.403,64.570 208.460,64.497 208.415 C 64.322 208.307,63.809 209.826,63.945 210.047 C 64.004 210.141,63.973 210.170,63.877 210.110 C 63.667 209.980,63.453 210.456,63.609 210.707 C 63.669 210.805,63.643 210.839,63.552 210.782 C 63.346 210.655,61.955 213.793,62.108 214.040 C 62.170 214.141,62.140 214.170,62.039 214.108 C 61.933 214.042,61.779 214.252,61.660 214.623 C 61.550 214.968,61.279 215.619,61.056 216.070 C 60.834 216.520,60.692 216.993,60.741 217.120 C 60.790 217.247,60.766 217.312,60.689 217.264 C 60.500 217.147,60.133 217.978,60.274 218.205 C 60.343 218.317,60.306 218.336,60.175 218.255 C 60.018 218.158,59.995 218.221,60.083 218.500 C 60.155 218.726,60.139 218.836,60.042 218.776 C 59.839 218.651,59.458 219.464,59.607 219.705 C 59.669 219.806,59.641 219.837,59.542 219.776 C 59.356 219.661,58.979 220.529,59.063 220.880 C 59.090 220.992,59.078 221.020,59.037 220.942 C 58.921 220.724,58.310 222.198,58.409 222.457 C 58.457 222.582,58.430 222.643,58.349 222.593 C 58.154 222.473,57.985 222.933,58.106 223.250 C 58.192 223.472,73.992 223.496,199.379 223.458 L 340.555 223.417 340.617 222.958 C 340.650 222.706,340.601 222.500,340.506 222.500 C 340.411 222.500,340.348 222.444,340.366 222.375 C 340.422 222.164,340.152 221.500,340.010 221.500 C 339.937 221.500,339.782 221.162,339.667 220.750 C 339.551 220.338,339.387 220.000,339.302 220.000 C 339.217 220.000,339.185 219.938,339.232 219.863 C 339.278 219.788,339.170 219.486,338.991 219.193 C 338.813 218.899,338.667 218.516,338.667 218.341 C 338.667 218.167,338.567 217.924,338.445 217.802 C 338.323 217.680,338.251 217.496,338.286 217.393 C 338.320 217.290,338.227 217.084,338.079 216.936 C 337.931 216.788,337.860 216.667,337.921 216.667 C 337.983 216.667,337.868 216.387,337.666 216.045 C 337.464 215.703,337.271 215.278,337.237 215.099 C 337.203 214.921,337.116 214.731,337.046 214.679 C 336.975 214.626,336.892 214.471,336.863 214.333 C 336.833 214.196,336.743 214.060,336.664 214.031 C 336.584 214.002,336.560 213.871,336.611 213.739 C 336.661 213.608,336.628 213.500,336.538 213.500 C 336.350 213.500,335.973 212.664,335.915 212.118 C 335.893 211.916,335.866 211.697,335.855 211.631 C 335.843 211.566,335.665 211.349,335.458 211.149 C 335.252 210.948,335.177 210.837,335.292 210.902 C 335.573 211.061,335.555 210.912,335.257 210.614 C 335.123 210.480,334.975 210.162,334.929 209.907 C 334.883 209.652,334.749 209.382,334.631 209.308 C 334.513 209.233,334.476 209.171,334.548 209.169 C 334.620 209.168,334.585 208.998,334.470 208.792 C 334.356 208.585,334.254 208.379,334.245 208.333 C 334.235 208.287,334.026 207.824,333.780 207.302 C 333.535 206.781,333.333 206.233,333.333 206.084 C 333.333 205.920,333.257 205.861,333.138 205.934 C 333.007 206.015,332.978 205.964,333.050 205.777 C 333.108 205.625,333.084 205.500,332.995 205.500 C 332.906 205.500,332.842 205.444,332.853 205.375 C 332.914 204.987,332.810 204.661,332.656 204.757 C 332.558 204.817,332.497 204.766,332.522 204.642 C 332.583 204.324,332.340 203.667,332.161 203.667 C 332.078 203.667,332.054 203.554,332.106 203.417 C 332.159 203.279,332.119 203.167,332.018 203.167 C 331.916 203.167,331.850 203.110,331.871 203.042 C 331.891 202.973,331.710 202.504,331.467 202.000 C 331.224 201.496,330.860 200.615,330.657 200.042 C 330.455 199.469,330.211 199.000,330.117 199.000 C 330.022 199.000,329.992 198.953,330.050 198.895 C 330.108 198.837,330.067 198.631,329.959 198.436 C 329.851 198.242,329.778 198.027,329.798 197.958 C 329.817 197.890,329.758 197.833,329.667 197.833 C 329.575 197.833,329.508 197.777,329.518 197.708 C 329.554 197.457,329.290 196.833,329.147 196.833 C 329.066 196.833,329.019 196.760,329.042 196.670 C 329.100 196.442,69.850 196.355,69.683 196.583 M269.875 223.292 C 231.077 223.315,167.590 223.315,128.792 223.292 C 89.994 223.269,121.737 223.250,199.333 223.250 C 276.929 223.250,308.673 223.269,269.875 223.292 " stroke="none" fill="#040434" fill-rule="evenodd"></path><path id="path1" d="M138.805 24.292 C 172.203 24.315,226.803 24.315,260.139 24.292 C 293.475 24.268,266.150 24.250,199.417 24.250 C 132.683 24.250,105.408 24.268,138.805 24.292 M63.416 94.833 C 63.416 133.012,63.435 148.631,63.458 129.542 C 63.482 110.452,63.482 79.215,63.458 60.125 C 63.435 41.035,63.416 56.654,63.416 94.833 M181.583 31.640 C 181.764 31.855,182.064 32.108,182.248 32.203 C 182.602 32.384,182.551 32.328,181.751 31.664 C 181.270 31.265,181.264 31.264,181.583 31.640 M199.833 52.885 C 199.833 52.914,200.077 53.158,200.375 53.427 L 200.917 53.917 200.427 53.375 C 199.971 52.870,199.833 52.757,199.833 52.885 M143.292 54.262 C 142.645 54.613,142.719 54.734,143.375 54.400 C 144.003 54.080,144.114 53.997,143.903 54.007 C 143.819 54.010,143.544 54.125,143.292 54.262 M202.750 55.833 C 203.108 56.200,203.438 56.500,203.484 56.500 C 203.530 56.500,203.275 56.200,202.917 55.833 C 202.559 55.467,202.228 55.167,202.182 55.167 C 202.137 55.167,202.392 55.467,202.750 55.833 M205.417 58.500 C 205.775 58.867,206.105 59.167,206.151 59.167 C 206.197 59.167,205.941 58.867,205.583 58.500 C 205.225 58.133,204.895 57.833,204.849 57.833 C 204.803 57.833,205.059 58.133,205.417 58.500 M208.083 61.167 C 208.441 61.533,208.772 61.833,208.818 61.833 C 208.863 61.833,208.608 61.533,208.250 61.167 C 207.892 60.800,207.562 60.500,207.516 60.500 C 207.470 60.500,207.725 60.800,208.083 61.167 M210.750 63.833 C 211.108 64.200,211.438 64.500,211.484 64.500 C 211.530 64.500,211.275 64.200,210.917 63.833 C 210.559 63.467,210.228 63.167,210.182 63.167 C 210.137 63.167,210.392 63.467,210.750 63.833 M148.583 65.167 C 149.589 66.175,150.448 67.000,150.494 67.000 C 150.540 67.000,149.755 66.175,148.750 65.167 C 147.745 64.158,146.885 63.333,146.839 63.333 C 146.793 63.333,147.578 64.158,148.583 65.167 M198.167 76.750 C 204.445 83.029,209.620 88.167,209.665 88.167 C 209.810 88.167,187.090 65.388,186.917 65.360 C 186.826 65.345,191.888 70.471,198.167 76.750 M213.417 66.500 C 213.775 66.867,214.105 67.167,214.151 67.167 C 214.197 67.167,213.941 66.867,213.583 66.500 C 213.225 66.133,212.895 65.833,212.849 65.833 C 212.803 65.833,213.059 66.133,213.417 66.500 M216.083 69.167 C 216.441 69.533,216.772 69.833,216.818 69.833 C 216.863 69.833,216.608 69.533,216.250 69.167 C 215.892 68.800,215.562 68.500,215.516 68.500 C 215.470 68.500,215.725 68.800,216.083 69.167 M218.750 71.833 C 219.108 72.200,219.438 72.500,219.484 72.500 C 219.530 72.500,219.275 72.200,218.917 71.833 C 218.559 71.467,218.228 71.167,218.182 71.167 C 218.137 71.167,218.392 71.467,218.750 71.833 M143.667 75.250 C 144.534 76.121,145.281 76.833,145.327 76.833 C 145.373 76.833,144.701 76.121,143.833 75.250 C 142.966 74.379,142.219 73.667,142.173 73.667 C 142.127 73.667,142.799 74.379,143.667 75.250 M221.582 74.628 L 222.410 75.505 216.163 81.794 L 209.917 88.083 216.249 81.793 L 222.581 75.502 221.668 74.626 L 220.754 73.750 221.582 74.628 M175.214 76.250 C 175.216 76.708,175.248 76.876,175.286 76.623 C 175.325 76.369,175.324 75.994,175.284 75.789 C 175.244 75.584,175.213 75.792,175.214 76.250 M271.381 121.417 C 271.382 121.875,271.415 122.043,271.453 121.789 C 271.491 121.536,271.490 121.161,271.451 120.956 C 271.411 120.751,271.380 120.958,271.381 121.417 M255.377 137.120 C 255.631 137.158,256.006 137.157,256.211 137.117 C 256.416 137.078,256.208 137.046,255.750 137.048 C 255.292 137.049,255.124 137.081,255.377 137.120 M227.000 143.583 C 229.244 145.829,231.118 147.667,231.164 147.667 C 231.210 147.667,229.411 145.829,227.167 143.583 C 224.922 141.337,223.048 139.500,223.003 139.500 C 222.957 139.500,224.756 141.337,227.000 143.583 M223.660 155.208 C 224.350 155.944,224.500 156.077,224.500 155.951 C 224.500 155.925,224.144 155.568,223.708 155.160 L 222.917 154.417 223.660 155.208 M69.250 174.086 C 69.433 174.236,69.733 174.431,69.917 174.521 L 70.250 174.685 69.917 174.414 C 69.733 174.264,69.433 174.069,69.250 173.979 L 68.917 173.815 69.250 174.086 M137.958 176.792 C 171.715 176.815,226.952 176.815,260.708 176.792 C 294.465 176.769,266.846 176.750,199.333 176.750 C 131.821 176.750,104.202 176.769,137.958 176.792 M112.167 182.125 C 245.774 182.238,336.294 182.238,336.224 182.125 C 336.182 182.056,274.595 182.019,199.365 182.041 C 124.135 182.064,84.896 182.102,112.167 182.125 M133.639 191.625 C 169.878 191.648,229.128 191.648,265.305 191.625 C 301.483 191.602,271.833 191.583,199.417 191.583 C 127.000 191.583,97.400 191.602,133.639 191.625 M134.611 196.458 C 170.193 196.481,228.468 196.481,264.111 196.458 C 299.754 196.435,270.642 196.416,199.417 196.416 C 128.192 196.416,99.029 196.435,134.611 196.458 M128.792 223.292 C 167.590 223.315,231.077 223.315,269.875 223.292 C 308.673 223.269,276.929 223.250,199.333 223.250 C 121.737 223.250,89.994 223.269,128.792 223.292 " stroke="none" fill="#040c34" fill-rule="evenodd"></path><path id="path2" d="" stroke="none" fill="#080434" fill-rule="evenodd"></path><path id="path3" d="" stroke="none" fill="#080434" fill-rule="evenodd"></path><path id="path4" d="" stroke="none" fill="#080434" fill-rule="evenodd"></path></g></svg>