<?xml version="1.0" standalone="no"?>
<!DOCTYPE svg PUBLIC "-//W3C//DTD SVG 20010904//EN"
 "http://www.w3.org/TR/2001/REC-SVG-20010904/DTD/svg10.dtd">
<svg version="1.0" xmlns="http://www.w3.org/2000/svg"
 width="2550.000000pt" height="1700.000000pt" viewBox="0 0 2550.000000 1700.000000"
 preserveAspectRatio="xMidYMid meet">

<g transform="translate(0.000000,1700.000000) scale(0.100000,-0.100000)"
fill="#000000" stroke="none">
<path d="M4848 16155 c-313 -43 -602 -235 -724 -482 -20 -41 -45 -106 -55
-146 -18 -70 -19 -210 -19 -4577 0 -4455 0 -4506 20 -4575 63 -223 223 -406
460 -526 89 -45 139 -62 251 -86 81 -17 400 -18 7939 -18 l7855 0 109 28 c375
95 648 370 687 691 6 52 8 1686 7 4546 -3 4010 -5 4471 -19 4521 -23 83 -83
197 -142 270 -159 198 -381 318 -657 355 -152 20 -15562 19 -15712 -1z m15637
-711 c18 -8 41 -25 52 -36 17 -19 18 -162 18 -4455 l0 -4435 -32 -28 c-18 -16
-49 -34 -70 -39 -52 -15 -15432 -15 -15485 -1 -20 6 -50 23 -67 39 l-31 29 0
4429 c0 4062 1 4430 16 4452 9 12 30 31 48 42 30 19 169 19 7774 19 7018 0
7747 -1 7777 -16z"/>
<path d="M10965 15320 c-56 -28 -709 -683 -730 -732 -35 -86 -17 -136 107
-293 387 -491 809 -1014 836 -1037 17 -14 192 -115 389 -224 l358 -197 725
-724 725 -723 400 400 400 400 -726 728 -727 727 -182 330 c-100 182 -196 352
-212 378 -24 37 -116 116 -412 351 -209 167 -464 370 -566 451 -102 81 -203
156 -225 166 -52 24 -110 24 -160 -1z"/>
<path d="M9505 13623 c-75 -9 -197 -37 -280 -64 -96 -30 -143 -65 -164 -122
-14 -36 -14 -108 0 -144 6 -15 165 -183 354 -373 l343 -346 -24 -109 c-13 -61
-31 -150 -41 -199 -14 -70 -22 -90 -38 -97 -25 -11 -347 -79 -371 -79 -11 0
-167 148 -364 344 -341 339 -346 344 -399 355 -98 21 -178 -22 -219 -116 -29
-67 -69 -232 -83 -338 -17 -132 -6 -364 25 -495 165 -713 798 -1196 1516
-1156 100 5 175 16 295 41 29 6 74 -38 1177 -1142 l1147 -1148 -19 -80 c-69
-283 -31 -647 96 -923 140 -306 400 -572 700 -717 345 -167 736 -195 1096 -79
99 33 138 59 166 114 26 52 28 106 7 158 -11 25 -128 149 -356 377 l-339 341
40 198 c22 110 42 201 44 203 5 5 376 83 396 83 8 0 170 -155 360 -344 358
-357 369 -366 448 -366 35 0 109 39 137 72 29 34 78 186 102 313 23 126 23
399 -1 520 -101 512 -435 918 -911 1108 -275 110 -585 134 -860 67 l-80 -19
-1148 1147 c-1018 1017 -1147 1150 -1143 1172 3 14 12 57 21 95 25 107 30 357
11 490 -45 319 -186 601 -418 835 -215 217 -505 365 -813 415 -82 14 -329 18
-410 8z"/>
<path d="M14639 12111 c-71 -46 -1185 -1169 -1204 -1213 -21 -51 -19 -114 5
-162 12 -26 118 -139 280 -301 l260 -260 702 703 703 702 -265 265 c-146 146
-279 272 -296 280 -54 26 -133 20 -185 -14z"/>
<path d="M14945 10610 l-700 -700 700 -699 c385 -384 729 -720 765 -746 94
-68 230 -133 339 -163 82 -21 118 -25 246 -26 187 -1 281 20 440 98 294 145
494 413 545 729 20 120 8 322 -24 430 -28 94 -76 198 -134 287 -21 33 -319
339 -751 773 -394 394 -718 717 -721 717 -3 0 -320 -315 -705 -700z"/>
<path d="M2860 3649 c-624 -953 -1157 -1766 -1183 -1808 l-49 -76 6 -115 c18
-378 243 -658 638 -794 l76 -26 10394 0 10393 0 77 24 c287 88 475 306 635
738 l25 67 -1220 1858 -1220 1858 -8718 3 -8719 2 -1135 -1731z m19294 -453
c575 -877 1046 -1599 1046 -1606 0 -18 -56 -94 -95 -128 l-36 -32 -10323 0
-10323 0 -46 31 c-50 33 -150 136 -145 150 2 4 471 721 1043 1593 l1040 1586
8396 0 8397 0 1046 -1594z"/>
<path d="M4433 4413 c-267 -604 -713 -1626 -710 -1629 2 -2 4049 -3 8994 -2
l8991 3 -294 670 c-162 369 -329 748 -370 843 l-77 172 -8254 0 -8254 0 -26
-57z"/>
</g>
</svg>
